<svg xmlns="http://www.w3.org/2000/svg" width="111.481" height="111.482" viewBox="0 0 111.481 111.482">
  <g id="Grupo_1180" data-name="Grupo 1180" transform="translate(0.093 0.092)" opacity="0.5">
    <path id="Caminho_906" data-name="Caminho 906" d="M55.74,0a55.741,55.741,0,1,0,55.74,55.742A55.8,55.8,0,0,0,55.74,0m0,107.374a51.633,51.633,0,1,1,51.633-51.632A51.691,51.691,0,0,1,55.74,107.374" transform="translate(-0.093 -0.092)" fill="#fff"/>
    <path id="Caminho_907" data-name="Caminho 907" d="M75.5,47.887,32.477,23.045A2.054,2.054,0,0,0,29.4,24.824V74.507a2.053,2.053,0,0,0,3.081,1.779L75.5,51.445a2.054,2.054,0,0,0,0-3.559" transform="translate(7.752 5.984)" fill="#fff"/>
  </g>
</svg>
