<svg xmlns="http://www.w3.org/2000/svg" width="30.785" height="25.019" viewBox="0 0 30.785 25.019">
  <path id="Caminho_1956" data-name="Caminho 1956" d="M433.011,35.278c11.617,0,17.97-9.625,17.97-17.97,0-.274-.006-.546-.019-.816a12.838,12.838,0,0,0,3.151-3.271,12.63,12.63,0,0,1-3.627.994,6.339,6.339,0,0,0,2.777-3.494,12.641,12.641,0,0,1-4.01,1.533,6.322,6.322,0,0,0-10.763,5.76,17.931,17.931,0,0,1-13.018-6.6,6.319,6.319,0,0,0,1.956,8.431,6.258,6.258,0,0,1-2.861-.79c0,.027,0,.053,0,.08a6.32,6.32,0,0,0,5.068,6.192,6.314,6.314,0,0,1-2.852.108,6.324,6.324,0,0,0,5.9,4.387,12.67,12.67,0,0,1-7.844,2.7,12.981,12.981,0,0,1-1.506-.087,17.883,17.883,0,0,0,9.681,2.837" transform="translate(-423.329 -10.259)" fill="#505050"/>
</svg>
