<svg xmlns="http://www.w3.org/2000/svg" width="33.537" height="33.679" viewBox="0 0 33.537 33.679">
  <path id="União_29" data-name="União 29" d="M2.369,25.03a16.7,16.7,0,1,1,14.47,8.36h-.008a16.7,16.7,0,0,1-7.979-2.032L0,33.679Zm7.4,3.608a13.87,13.87,0,0,0,7.064,1.933h.006a13.876,13.876,0,1,0-11.758-6.5l.329.524-1.4,5.119,5.253-1.378Zm9.794-4.168a23.771,23.771,0,0,1-2.378-.88c-4.185-1.805-6.919-6.018-7.127-6.3a8.1,8.1,0,0,1-1.7-4.314A4.674,4.674,0,0,1,9.813,9.5a1.535,1.535,0,0,1,1.113-.522c.279,0,.557,0,.8.014.03,0,.061,0,.094,0,.243,0,.546,0,.845.715.348.835,1.183,2.887,1.287,3.1a.769.769,0,0,1,.035.731,2.831,2.831,0,0,1-.417.7c-.208.244-.439.544-.625.731-.21.208-.427.434-.183.851a12.573,12.573,0,0,0,2.32,2.889,11.4,11.4,0,0,0,3.356,2.069c.417.209.661.174.9-.1s1.044-1.217,1.322-1.634.556-.348.939-.21,2.433,1.149,2.85,1.357.7.313.8.487a3.482,3.482,0,0,1-.243,1.983,4.3,4.3,0,0,1-2.817,1.983,6.838,6.838,0,0,1-1.014.08A5.3,5.3,0,0,1,19.563,24.47Z" fill="#505050"/>
</svg>
