<?xml version="1.0" standalone="no"?>
<!DOCTYPE svg PUBLIC "-//W3C//DTD SVG 1.1//EN" "http://www.w3.org/Graphics/SVG/1.1/DTD/svg11.dtd" >
<svg xmlns="http://www.w3.org/2000/svg" xmlns:xlink="http://www.w3.org/1999/xlink" version="1.1">
<metadata></metadata>
<defs>
<font id="sul_sansbold_italic" horiz-adv-x="555" >
<font-face units-per-em="2048" ascent="1589" descent="-459" />
<missing-glyph horiz-adv-x="589" />
<glyph unicode="&#xfb01;" horiz-adv-x="1378" d="M84 768l55 264h207l55 260q26 125 110 197t204 72h284l-55 -265h-188q-75 0 -92 -77l-39 -187h264l-55 -264h-267l-161 -768h-279l164 768h-207zM852 0l219 1032h279l-220 -1032h-278zM1104 1341q0 87 54 143t134 56q69 0 118.5 -43.5t49.5 -110.5q0 -87 -54 -142.5 t-134 -55.5q-69 0 -118.5 43t-49.5 110z" />
<glyph unicode="&#xfb02;" horiz-adv-x="1378" d="M84 768l55 264h207l55 260q26 125 110 197t204 72h284l-55 -265h-188q-75 0 -92 -77l-39 -187h264l-55 -264h-267l-161 -768h-279l164 768h-207zM852 0l332 1561h278l-332 -1561h-278z" />
<glyph horiz-adv-x="0" />
<glyph horiz-adv-x="682" />
<glyph unicode=" "  horiz-adv-x="589" />
<glyph unicode="&#x09;" horiz-adv-x="589" />
<glyph unicode="&#xa0;" horiz-adv-x="589" />
<glyph unicode="!" horiz-adv-x="714" d="M104 141q0 88 56 145.5t135 57.5q69 0 118.5 -43.5t49.5 -110.5q0 -88 -55.5 -145t-135.5 -57q-69 0 -118.5 43t-49.5 110zM217 459l197 1036h303l-244 -1036h-256z" />
<glyph unicode="&#x22;" horiz-adv-x="880" d="M238 903l63 475q9 67 50.5 103.5t97.5 36.5q51 0 84.5 -32.5t33.5 -82.5q0 -28 -20 -98l-117 -402h-192zM616 903l64 475q9 67 50 103.5t97 36.5q51 0 85 -33t34 -82q0 -28 -20 -98l-117 -402h-193z" />
<glyph unicode="#" horiz-adv-x="1316" d="M100 403l58 215h192l70 259h-193l58 215h192l109 403h221l-109 -403h203l109 403h221l-109 -403h193l-58 -215h-192l-70 -259h193l-58 -215h-192l-109 -403h-221l109 403h-203l-108 -403h-222l109 403h-193zM571 618h203l70 259h-203z" />
<glyph unicode="$" horiz-adv-x="1208" d="M109 504h286q1 -67 61 -108.5t146 -41.5t142.5 42.5t56.5 107.5q0 36 -18.5 58.5t-63.5 41.5q-35 14 -129 34.5t-139 35.5q-222 74 -222 297q0 171 122 293t308 141l50 227h268l-55 -262q117 -45 185.5 -140.5t68.5 -225.5h-287q-1 62 -55 99.5t-132 37.5 q-83 0 -135.5 -39t-52.5 -98q0 -72 76 -99q25 -9 118.5 -29t139.5 -34q123 -37 181 -109t58 -192q0 -177 -124 -302t-314 -147l-49 -229h-268l55 258q-128 45 -203 146t-75 237z" />
<glyph unicode="%" horiz-adv-x="1959" d="M176 0l1409 1495h297l-1409 -1495h-297zM178 1077q0 118 59.5 219.5t161.5 161.5t222 60q157 0 260.5 -99t103.5 -256q0 -118 -59 -219.5t-161 -161t-222 -59.5q-157 0 -261 99t-104 255zM428 1104q0 -59 38 -97t99 -38q71 0 120.5 50t49.5 118q0 59 -38 97t-99 38 q-71 0 -120.5 -50t-49.5 -118zM1073 332q0 180 130 310t313 130q157 0 260.5 -98.5t103.5 -255.5q0 -181 -130 -311t-312 -130q-157 0 -261 99t-104 256zM1323 358q0 -59 38 -97t99 -38q71 0 120.5 50t49.5 118q0 59 -38 97t-99 38q-71 0 -120.5 -50t-49.5 -118z" />
<glyph unicode="&#x26;" horiz-adv-x="1499" d="M59 387q0 166 99.5 293t277.5 190l-18 29q-53 80 -53 184q0 184 134 309.5t328 125.5q167 0 277 -94t110 -242q0 -146 -85.5 -251t-239.5 -157l-47 -16l135 -203l219 256h350l-424 -477l219 -334h-333l-88 133q-167 -156 -400 -156q-202 0 -331.5 116t-129.5 294z M358 424q0 -73 56 -120.5t145 -47.5q116 0 213 102l-194 297l-48 -16q-80 -28 -126 -84.5t-46 -130.5zM639 1110q0 -38 35 -94l43 -64l90 31q135 47 135 162q0 51 -37.5 85t-101.5 34q-69 0 -116.5 -44.5t-47.5 -109.5z" />
<glyph unicode="'" horiz-adv-x="501" d="M238 903l63 475q9 67 50.5 103.5t97.5 36.5q51 0 84.5 -32.5t33.5 -82.5q0 -28 -20 -98l-117 -402h-192z" />
<glyph unicode="(" horiz-adv-x="778" d="M111 362q0 361 168 674t473 518l145 -215q-246 -164 -380 -418.5t-134 -545.5q0 -316 182 -568l-225 -157q-229 328 -229 712z" />
<glyph unicode=")" horiz-adv-x="778" d="M-82 -135q246 164 380 418.5t134 545.5q0 316 -182 568l225 157q230 -329 230 -712q0 -361 -168 -674t-474 -518z" />
<glyph unicode="*" horiz-adv-x="925" d="M209 1145l61 186l232 -80l-6 244h196l-6 -244l229 80l62 -186l-236 -66l148 -196l-156 -115l-139 203l-139 -203l-158 115l147 196z" />
<glyph unicode="+" horiz-adv-x="1296" d="M156 575l55 259h377l80 376h260l-80 -376h377l-56 -259h-376l-80 -376h-260l79 376h-376z" />
<glyph unicode="," horiz-adv-x="583" d="M-16 -287l145 316q-39 18 -62.5 53t-23.5 80q0 87 54 143.5t134 56.5q69 0 118.5 -43t49.5 -110q0 -58 -32 -117l-215 -379h-168z" />
<glyph unicode="-" horiz-adv-x="718" d="M86 446l57 271h519l-58 -271h-518z" />
<glyph unicode="." horiz-adv-x="583" d="M39 141q0 88 55.5 145.5t134.5 57.5q69 0 118.5 -43.5t49.5 -110.5q0 -88 -55.5 -145t-134.5 -57q-69 0 -118.5 43t-49.5 110z" />
<glyph unicode="/" horiz-adv-x="974" d="M-94 -47l995 1591h270l-995 -1591h-270z" />
<glyph unicode="0" horiz-adv-x="1320" d="M135 432q0 84 48 318t83 350q54 184 205.5 300t343.5 116q205 0 338 -128.5t133 -324.5q0 -84 -48 -318t-83 -350q-54 -184 -205 -299.5t-342 -115.5q-206 0 -339.5 128t-133.5 324zM432 469q0 -89 57 -142t150 -53q86 0 146 47.5t87 129.5q28 92 72.5 304.5t44.5 270.5 q0 89 -57 142t-150 53q-86 0 -146 -47.5t-87 -129.5q-28 -92 -72.5 -304.5t-44.5 -270.5z" />
<glyph unicode="1" horiz-adv-x="1005" d="M199 944l67 320l432 231h295l-317 -1495h-295l250 1176z" />
<glyph unicode="2" horiz-adv-x="1181" d="M-10 0l55 262l686 555q40 33 64.5 55.5t49 53t35.5 64.5t11 73q0 73 -52.5 116.5t-133.5 43.5q-79 0 -136 -45.5t-69 -122.5h-297q29 206 175 334.5t355 128.5q201 0 329 -117t128 -297q0 -111 -40 -204t-104 -162.5t-169 -149.5l-392 -301h555l-61 -287h-989z" />
<glyph unicode="3" horiz-adv-x="1206" d="M66 403q0 19 2 29h297q3 -78 58.5 -123t145.5 -45q97 0 159.5 58.5t62.5 150.5q0 70 -50 115t-137 45h-129l55 260h179q87 0 143.5 51.5t56.5 134.5q0 69 -52.5 110.5t-131.5 41.5q-78 0 -132 -40t-67 -110h-295q23 192 167 314.5t347 122.5q201 0 328 -109.5t127 -282.5 q0 -124 -58 -226t-159 -163q100 -108 100 -262q0 -139 -72.5 -253.5t-196 -179.5t-269.5 -65q-209 0 -344 120.5t-135 305.5z" />
<glyph unicode="4" horiz-adv-x="1304" d="M63 387l50 229l794 881h314l-177 -831h220l-60 -279h-219l-82 -387h-287l82 387h-635zM444 666h314l98 456z" />
<glyph unicode="5" horiz-adv-x="1255" d="M86 418q0 15 4 47h291v-10q0 -85 63.5 -137t159.5 -52q105 0 174.5 67.5t69.5 166.5q0 82 -55.5 132t-157.5 50h-438l268 813h829l-61 -287h-569l-82 -247h123q201 0 319.5 -119.5t118.5 -304.5q0 -114 -45 -218t-121.5 -179.5t-182 -120t-221.5 -44.5 q-208 0 -347.5 125.5t-139.5 317.5z" />
<glyph unicode="6" horiz-adv-x="1243" d="M72 436q0 239 227 494l504 565h368l-462 -512q194 -14 319 -135t125 -309q0 -149 -77.5 -278t-213 -206.5t-295.5 -77.5q-214 0 -354.5 129t-140.5 330zM373 465q0 -89 65 -141t164 -52q110 0 183 70.5t73 175.5q0 89 -64.5 142t-162.5 53q-111 0 -184.5 -70t-73.5 -178z " />
<glyph unicode="7" horiz-adv-x="1171" d="M119 0l782 1208h-686l61 287h1012l-57 -274l-789 -1221h-323z" />
<glyph unicode="8" horiz-adv-x="1251" d="M94 393q0 133 65.5 243t180.5 173q-86 99 -86 233q0 133 69.5 242.5t189 171.5t263.5 62q205 0 338 -109t133 -287q0 -120 -58 -220.5t-159 -164.5q103 -103 103 -256q0 -144 -73 -260t-197.5 -180t-274.5 -64q-213 0 -353.5 115t-140.5 301zM387 434q0 -81 61.5 -127.5 t155.5 -46.5q102 0 168 61.5t66 151.5q0 80 -60.5 126t-154.5 46q-102 0 -169 -61t-67 -150zM547 1042q0 -70 56.5 -111.5t137.5 -41.5q94 0 152.5 54.5t58.5 135.5q0 71 -55.5 112.5t-138.5 41.5q-92 0 -151.5 -55t-59.5 -136z" />
<glyph unicode="9" horiz-adv-x="1243" d="M170 0l463 512q-195 14 -320 135t-125 309q0 149 77.5 278t213 206.5t295.5 77.5q214 0 355 -129t141 -330q0 -238 -228 -494l-503 -565h-369zM483 977q0 -89 65 -142t163 -53q111 0 184.5 70t73.5 178q0 89 -65 141t-165 52q-110 0 -183 -70.5t-73 -175.5z" />
<glyph unicode=":" horiz-adv-x="583" d="M39 141q0 88 55.5 145.5t134.5 57.5q69 0 118.5 -43.5t49.5 -110.5q0 -88 -55.5 -145t-134.5 -57q-69 0 -118.5 43t-49.5 110zM184 831q0 88 56 145.5t135 57.5q69 0 118.5 -43t49.5 -110q0 -88 -56 -145.5t-135 -57.5q-69 0 -118.5 43t-49.5 110z" />
<glyph unicode=";" horiz-adv-x="583" d="M-16 -287l145 316q-39 18 -62.5 53t-23.5 80q0 87 54 143.5t134 56.5q69 0 118.5 -43t49.5 -110q0 -58 -32 -117l-215 -379h-168zM184 831q0 88 56 145.5t135 57.5q69 0 118.5 -43t49.5 -110q0 -88 -56 -145.5t-135 -57.5q-69 0 -118.5 43t-49.5 110z" />
<glyph unicode="&#x3c;" horiz-adv-x="1296" d="M172 616l39 181l1079 405l-55 -264l-617 -231l517 -232l-56 -264z" />
<glyph unicode="=" horiz-adv-x="1296" d="M131 360l51 244h971l-51 -244h-971zM225 805l51 244h971l-51 -244h-971z" />
<glyph unicode="&#x3e;" horiz-adv-x="1296" d="M88 209l55 264l617 232l-516 231l55 264l907 -405l-39 -181z" />
<glyph unicode="?" horiz-adv-x="1042" d="M193 1071q25 195 163 321t330 126q179 0 294.5 -109.5t115.5 -273.5q0 -83 -21.5 -150.5t-66.5 -123.5t-96.5 -99.5t-129.5 -95.5q-80 -53 -115 -94.5t-46 -92.5l-5 -20h-268l8 39q28 131 83 206t186 162q87 57 132.5 109t45.5 123q0 59 -41 97t-107 38q-65 0 -114 -45.5 t-58 -116.5h-290zM242 141q0 88 55.5 145.5t134.5 57.5q69 0 118.5 -43.5t49.5 -110.5q0 -88 -55.5 -145t-134.5 -57q-69 0 -118.5 43t-49.5 110z" />
<glyph unicode="@" horiz-adv-x="1853" d="M109 418q0 184 69.5 351.5t188 289.5t284 194t350.5 72q223 0 396.5 -86t269.5 -241t96 -353q0 -106 -27 -203t-76.5 -173t-126.5 -121.5t-171 -45.5q-72 0 -137 27.5t-103 73.5q-110 -99 -266 -99q-164 0 -267.5 102.5t-103.5 264.5q0 123 59.5 231.5t163 175 t224.5 66.5q156 0 248 -98l16 78h213l-104 -492q-7 -28 -7 -45q0 -38 25 -61t63 -23q44 0 78.5 32t53.5 83t28.5 104.5t9.5 104.5q0 224 -159 362.5t-414 138.5q-186 0 -340.5 -93.5t-241 -250t-86.5 -340.5q0 -110 38 -205t109 -165.5t180.5 -111t244.5 -40.5h270l-41 -198 h-270q-168 0 -308 54.5t-233 149t-144.5 220.5t-51.5 270zM702 494q0 -78 51 -129.5t134 -51.5q96 0 162.5 70t66.5 170q0 79 -52 129.5t-134 50.5q-95 0 -161.5 -70t-66.5 -169z" />
<glyph unicode="A" horiz-adv-x="1333" d="M-84 0l809 1495h301l170 -1495h-291l-24 213h-553l-115 -213h-297zM479 496h371l-66 567z" />
<glyph unicode="B" horiz-adv-x="1456" d="M47 0l318 1495h720q166 0 273.5 -104t107.5 -265q0 -124 -62 -228.5t-165 -164.5q107 -107 107 -266q0 -191 -137 -329t-328 -138h-834zM397 281h471q77 0 131 55t54 131q0 63 -42.5 104t-111.5 41h-432zM526 887h465q77 0 130 54t53 130q0 62 -42 102.5t-112 40.5h-424z " />
<glyph unicode="C" horiz-adv-x="1525" d="M135 655q0 170 66 328t178.5 276t270.5 188.5t333 70.5q213 0 376.5 -98t244.5 -267l-263 -152q-51 105 -151.5 166.5t-237.5 61.5q-146 0 -267 -75t-189 -200.5t-68 -271.5q0 -185 117.5 -300.5t316.5 -115.5q114 0 213 46t172 132l197 -190q-117 -131 -274.5 -204 t-333.5 -73q-147 0 -276 49.5t-223 137.5t-148 215.5t-54 275.5z" />
<glyph unicode="D" horiz-adv-x="1495" d="M47 0l318 1495h413q197 0 355 -85.5t247.5 -238.5t89.5 -346q0 -167 -65 -319.5t-174 -263.5t-260.5 -176.5t-317.5 -65.5h-606zM401 287h277q140 0 255.5 69.5t180 187t64.5 255.5q0 179 -118 294t-310 115h-154z" />
<glyph unicode="E" horiz-adv-x="1425" d="M47 0l318 1495h1161l-62 -287h-870l-66 -313h484l-62 -287h-483l-68 -321h871l-62 -287h-1161z" />
<glyph unicode="F" horiz-adv-x="1382" d="M47 0l318 1495h1161l-62 -287h-868l-66 -313h482l-62 -287h-481l-129 -608h-293z" />
<glyph unicode="G" horiz-adv-x="1667" d="M135 641q0 140 43 273t121.5 241.5t183.5 190.5t236.5 127t271.5 45q219 0 389 -103t254 -280l-268 -150q-50 113 -156 178.5t-245 65.5q-149 0 -273 -77t-194 -206t-70 -280q0 -184 122 -296t314 -112q139 0 250 65t176 181h-520l57 272h828l-33 -149 q-59 -283 -281.5 -466.5t-513.5 -183.5q-198 0 -356 84.5t-247 236t-89 343.5z" />
<glyph unicode="H" horiz-adv-x="1509" d="M47 0l318 1495h292l-127 -600h611l127 600h293l-318 -1495h-293l129 608h-610l-129 -608h-293z" />
<glyph unicode="I" horiz-adv-x="606" d="M47 0l318 1495h292l-317 -1495h-293z" />
<glyph unicode="J" horiz-adv-x="1232" d="M8 424q0 27 4 59h293v-20q0 -87 61.5 -143t163.5 -56q94 0 163.5 56t88.5 145l219 1030h293l-225 -1061q-43 -203 -196.5 -330t-364.5 -127q-216 0 -358 122.5t-142 324.5z" />
<glyph unicode="K" horiz-adv-x="1361" d="M47 0l318 1495h292l-139 -659l645 659h373l-733 -739l422 -756h-357l-381 694l-147 -694h-293z" />
<glyph unicode="L" horiz-adv-x="1382" d="M47 0l318 1495h292l-256 -1208h867l-62 -287h-1159z" />
<glyph unicode="M" horiz-adv-x="1708" d="M47 0l318 1495h290l219 -864l592 864h293l-317 -1495h-293l180 850l-586 -866l-221 888l-186 -872h-289z" />
<glyph unicode="N" horiz-adv-x="1519" d="M47 0l318 1495h290l416 -989l211 989h289l-318 -1495h-288l-416 991l-211 -991h-291z" />
<glyph unicode="O" horiz-adv-x="1724" d="M135 668q0 173 66.5 330.5t178.5 271t268 181t327 67.5q204 0 366.5 -88t254.5 -246t92 -357q0 -173 -66.5 -330.5t-178.5 -271t-268 -181t-327 -67.5q-204 0 -366.5 88t-254.5 246t-92 357zM428 694q0 -187 124.5 -307.5t324.5 -120.5q146 0 265.5 73.5t186 195.5 t66.5 266q0 187 -124.5 307.5t-324.5 120.5q-146 0 -265.5 -73.5t-186 -195.5t-66.5 -266z" />
<glyph unicode="P" horiz-adv-x="1415" d="M47 0l318 1495h587q215 0 356.5 -135t141.5 -346q0 -160 -79 -297t-214.5 -217t-294.5 -80h-432l-90 -420h-293zM489 707h396q116 0 194 81.5t78 198.5q0 96 -64 158.5t-169 62.5h-328z" />
<glyph unicode="Q" horiz-adv-x="1738" d="M135 668q0 173 66.5 330.5t178.5 271t268 181t327 67.5q204 0 366.5 -88t254.5 -246t92 -357q0 -276 -164 -503l96 -86l-51 -238h-131l-129 117q-212 -140 -461 -140q-204 0 -366.5 88t-254.5 246t-92 357zM428 694q0 -187 124.5 -307.5t324.5 -120.5q111 0 213 45 l-164 146l196 221l191 -168q82 130 82 291q0 187 -124.5 307.5t-324.5 120.5q-146 0 -265.5 -73.5t-186 -195.5t-66.5 -266z" />
<glyph unicode="R" horiz-adv-x="1435" d="M47 0l318 1495h598q212 0 344.5 -128t132.5 -337q0 -196 -111.5 -345t-290.5 -202l211 -483h-336l-194 446h-285l-94 -446h-293zM496 731h389q111 0 186.5 78t75.5 188q0 92 -62 151.5t-161 59.5h-328z" />
<glyph unicode="S" horiz-adv-x="1275" d="M74 455h303q1 -90 73 -144.5t175 -54.5q106 0 176.5 58.5t70.5 144.5q0 48 -23.5 77.5t-82.5 55.5q-44 20 -151 44.5t-154 41.5q-242 86 -242 336q0 142 72.5 258t198.5 181t280 65q221 0 365.5 -125.5t144.5 -333.5h-303q-1 82 -65.5 131t-161.5 49q-101 0 -167.5 -52.5 t-66.5 -135.5q0 -96 96 -131q30 -11 133 -33t156 -39q140 -45 206.5 -127.5t66.5 -220.5q0 -147 -76 -267t-207.5 -188t-290.5 -68q-228 0 -377 133t-149 345z" />
<glyph unicode="T" horiz-adv-x="1265" d="M199 1208l61 287h1161l-61 -287h-434l-256 -1208h-293l256 1208h-434z" />
<glyph unicode="U" horiz-adv-x="1488" d="M156 483q0 76 16 154l182 858h293l-188 -887q-8 -40 -8 -71q0 -118 73.5 -194.5t198.5 -76.5q126 0 217 75.5t117 199.5l203 954h290l-213 -999q-34 -160 -129 -279t-227.5 -179.5t-284.5 -60.5q-240 0 -390 142t-150 364z" />
<glyph unicode="V" horiz-adv-x="1320" d="M233 1495h297l117 -1040l557 1040h299l-805 -1495h-290z" />
<glyph unicode="W" horiz-adv-x="2011" d="M238 1495h299l65 -1042l508 1042h207l65 -1030l510 1030h295l-743 -1495h-309l-62 834l-416 -834h-307z" />
<glyph unicode="X" horiz-adv-x="1378" d="M-94 0l651 748l-332 747h324l227 -516l447 516h342l-645 -739l335 -756h-323l-230 526l-454 -526h-342z" />
<glyph unicode="Y" horiz-adv-x="1353" d="M225 1495h310l198 -678l490 678h321l-727 -1001l-104 -494h-293l104 487z" />
<glyph unicode="Z" horiz-adv-x="1394" d="M0 0l57 272l981 936h-784l61 287h1178l-57 -272l-981 -936h784l-61 -287h-1178z" />
<glyph unicode="[" horiz-adv-x="782" d="M-2 -291l379 1786h518l-55 -264h-246l-268 -1258h245l-55 -264h-518z" />
<glyph unicode="\" horiz-adv-x="974" d="M248 1544h260l319 -1591h-260z" />
<glyph unicode="]" horiz-adv-x="782" d="M-76 -287l56 264h245l269 1258h-246l55 264h518l-379 -1786h-518z" />
<glyph unicode="^" horiz-adv-x="1103" d="M139 680l490 760h235l172 -760h-264l-92 424l-270 -424h-271z" />
<glyph unicode="_" horiz-adv-x="978" d="M-195 -399l56 264h979l-56 -264h-979z" />
<glyph unicode="`" horiz-adv-x="1300" d="M547 1477h344l16 -318h-188z" />
<glyph unicode="a" horiz-adv-x="1103" d="M27 287q0 149 98 232t266 99l336 29q2 10 2 23q0 53 -43.5 89t-107.5 36q-60 0 -105.5 -30t-60.5 -79h-269q30 162 157.5 265.5t307.5 103.5q169 0 282.5 -97.5t113.5 -250.5q0 -42 -11 -95l-131 -612h-266l12 55q-93 -78 -241 -78q-150 0 -245 85.5t-95 224.5zM305 311 q0 -46 38.5 -75t107.5 -29q84 0 143 42t74 111l18 84l-254 -24q-65 -7 -96 -36t-31 -73z" />
<glyph unicode="b" horiz-adv-x="1277" d="M29 0l331 1561h279l-121 -566q108 60 238 60q201 0 329.5 -130.5t128.5 -338.5q0 -118 -45 -229.5t-121 -195t-183.5 -134t-225.5 -50.5q-196 0 -311 121l-21 -98h-278zM410 485q0 -107 68.5 -172t168.5 -65q120 0 204.5 89t84.5 212q0 104 -64.5 169.5t-169.5 65.5 q-125 0 -208.5 -90t-83.5 -209z" />
<glyph unicode="c" horiz-adv-x="1081" d="M63 455q0 157 78 295t215 221.5t299 83.5q152 0 271.5 -73.5t175.5 -197.5l-256 -135q-62 133 -213 133q-121 0 -206 -87t-85 -210q0 -103 65.5 -169t172.5 -66q139 0 225 112l190 -180q-83 -97 -196.5 -151t-243.5 -54q-210 0 -351 133.5t-141 344.5z" />
<glyph unicode="d" horiz-adv-x="1277" d="M63 446q0 158 76 298t209.5 225.5t290.5 85.5q193 0 311 -121l133 627h279l-332 -1561h-266l12 57q-110 -80 -260 -80q-195 0 -324 130.5t-129 338.5zM342 483q0 -104 64 -169.5t169 -65.5q125 0 209 90t84 209q0 107 -68.5 172t-168.5 65q-120 0 -204.5 -89t-84.5 -212z " />
<glyph unicode="e" horiz-adv-x="1171" d="M63 457q0 119 46.5 229.5t124.5 191.5t187 129t228 48q205 0 336 -130t131 -331q0 -86 -31 -184h-743q19 -77 82.5 -124.5t155.5 -47.5q139 3 223 112l211 -147q-78 -106 -197.5 -167t-259.5 -61q-217 0 -355.5 135.5t-138.5 346.5zM367 623h479q-12 82 -74 128t-154 46 q-89 0 -154.5 -45.5t-96.5 -128.5z" />
<glyph unicode="f" horiz-adv-x="823" d="M84 768l55 264h207l55 260q26 125 110 197t204 72h284l-55 -265h-188q-75 0 -92 -77l-39 -187h264l-55 -264h-267l-161 -768h-279l164 768h-207z" />
<glyph unicode="g" horiz-adv-x="1230" d="M-25 -102l267 82q15 -79 75 -123.5t154 -44.5q89 0 152 48.5t82 131.5l20 96q-100 -53 -219 -53q-193 0 -318 124.5t-125 321.5q0 150 72.5 282t200 212t278.5 80q182 0 291 -109l19 86h278l-231 -1087q-37 -177 -178 -289.5t-336 -112.5q-184 0 -315.5 97.5 t-166.5 257.5zM342 514q0 -93 58.5 -153t154.5 -60q114 0 190 81t76 189q0 95 -63 154t-154 59q-108 0 -185 -79.5t-77 -190.5z" />
<glyph unicode="h" horiz-adv-x="1208" d="M29 0l331 1561h279l-123 -582q95 76 232 76q161 0 259.5 -102t98.5 -257q0 -54 -10 -102l-127 -594h-279l123 575q6 30 6 56q0 68 -43.5 110.5t-120.5 42.5q-84 0 -142.5 -50t-76.5 -130l-129 -604h-278z" />
<glyph unicode="i" d="M29 0l219 1032h278l-219 -1032h-278zM281 1341q0 87 54 143t134 56q69 0 118.5 -43.5t49.5 -110.5q0 -87 -54 -142.5t-134 -55.5q-69 0 -118.5 43t-49.5 110z" />
<glyph unicode="j" d="M-199 -434l56 264h67q31 0 53.5 18t28.5 50l242 1134h278l-256 -1202q-26 -122 -109 -193t-200 -71h-160zM281 1341q0 87 54 143t134 56q69 0 118.5 -43.5t49.5 -110.5q0 -87 -54 -142.5t-134 -55.5q-69 0 -118.5 43t-49.5 110z" />
<glyph unicode="k" horiz-adv-x="1122" d="M29 0l331 1561h279l-201 -947l436 418h357l-522 -491l299 -541h-324l-270 504l-107 -504h-278z" />
<glyph unicode="l" d="M29 0l331 1561h279l-332 -1561h-278z" />
<glyph unicode="m" horiz-adv-x="1771" d="M29 0l219 1032h266l-14 -67q90 90 229 90q176 0 268 -135q109 135 301 135q165 0 268 -103t103 -260q0 -46 -12 -104l-125 -588h-279l125 592q8 36 8 59q0 60 -37 96.5t-106 36.5q-70 0 -122.5 -45t-67.5 -116l-133 -623h-279l125 592q6 27 6 59q0 60 -37 96.5t-106 36.5 q-70 0 -122 -45t-67 -116l-133 -623h-278z" />
<glyph unicode="n" horiz-adv-x="1208" d="M29 0l219 1032h266l-14 -63q107 86 248 86q160 0 259 -102t99 -257q0 -50 -10 -102l-127 -594h-279l123 575q8 36 8 58q0 66 -45 108.5t-123 42.5q-83 0 -141 -49t-76 -129l-129 -606h-278z" />
<glyph unicode="o" horiz-adv-x="1214" d="M63 459q0 161 79 298t216.5 217.5t300.5 80.5q213 0 352.5 -135t139.5 -347q0 -161 -79 -298t-216.5 -217.5t-300.5 -80.5q-213 0 -352.5 135t-139.5 347zM340 487q0 -103 67 -170t175 -67q123 0 207.5 87t84.5 208q0 103 -67 170t-174 67q-123 0 -208 -87t-85 -208z" />
<glyph unicode="p" horiz-adv-x="1277" d="M-63 -434l311 1466h266l-12 -57q110 80 260 80q195 0 323.5 -130.5t128.5 -338.5q0 -118 -45 -229.5t-121 -195t-183.5 -134t-225.5 -50.5q-198 0 -309 121l-115 -532h-278zM410 485q0 -107 68.5 -172t168.5 -65q120 0 204.5 89t84.5 212q0 104 -64.5 169.5t-169.5 65.5 q-125 0 -208.5 -90t-83.5 -209z" />
<glyph unicode="q" horiz-adv-x="1277" d="M63 446q0 158 76 298t209.5 225.5t290.5 85.5q196 0 311 -121l21 98h278l-311 -1466h-279l101 471q-108 -60 -238 -60q-201 0 -330 130.5t-129 338.5zM342 483q0 -104 64 -169.5t169 -65.5q125 0 209 90t84 209q0 107 -68.5 172t-168.5 65q-120 0 -204.5 -89t-84.5 -212z " />
<glyph unicode="r" horiz-adv-x="815" d="M29 0l219 1032h272l-20 -96q96 96 258 96h127l-58 -274h-153q-91 0 -161 -60.5t-89 -152.5l-117 -545h-278z" />
<glyph unicode="s" horiz-adv-x="978" d="M29 330h274q1 -43 47.5 -71t110.5 -28q63 0 103 26t40 67q0 43 -55 61q-24 8 -103.5 23t-123.5 30q-199 65 -199 250q0 158 121 262.5t303 104.5q173 0 287 -94.5t114 -249.5h-274q0 40 -41 65t-101 25q-61 0 -98 -23t-37 -59q0 -43 54 -62q18 -6 100.5 -21.5 t122.5 -27.5q106 -32 156.5 -93.5t50.5 -158.5q0 -163 -127 -271t-314 -108q-178 0 -294.5 98.5t-116.5 254.5z" />
<glyph unicode="t" horiz-adv-x="845" d="M80 768l31 143l342 334h153l-45 -213h322l-56 -264h-323l-76 -358q-4 -20 -4 -39q0 -47 29.5 -77t83.5 -30h184l-55 -264h-211q-144 0 -231 83t-87 216q0 42 10 90l80 379h-147z" />
<glyph unicode="u" horiz-adv-x="1204" d="M104 334q0 44 11 104l127 594h278l-123 -575q-6 -27 -6 -60q0 -65 43 -107t119 -42q83 0 141 49t76 129l129 606h279l-220 -1032h-268l12 61q-100 -84 -241 -84q-160 0 -258.5 101.5t-98.5 255.5z" />
<glyph unicode="v" horiz-adv-x="1060" d="M123 1032h297l90 -612l346 612h301l-598 -1032h-276z" />
<glyph unicode="w" horiz-adv-x="1587" d="M131 1032h297l61 -622l326 622h180l60 -602l327 602h293l-559 -1032h-285l-45 479l-249 -479h-283z" />
<glyph unicode="x" horiz-adv-x="1136" d="M-82 0l473 524l-235 508h305l141 -309l277 309h321l-450 -502l249 -530h-305l-155 334l-299 -334h-322z" />
<glyph unicode="y" horiz-adv-x="1060" d="M12 -434l267 463l-156 1003h297l90 -602l346 602h301l-848 -1466h-297z" />
<glyph unicode="z" horiz-adv-x="1140" d="M-14 0l53 254l655 514h-547l56 264h952l-53 -254l-656 -514h547l-55 -264h-952z" />
<glyph unicode="{" horiz-adv-x="829" d="M35 471l55 262h148q64 0 79 62l99 460q23 112 101.5 176t191.5 64h225l-55 -264h-138q-32 0 -48.5 -16t-24.5 -52l-76 -354q-27 -133 -125 -205q45 -54 45 -133q0 -38 -10 -86l-70 -328q-6 -27 -6 -39q0 -45 47 -45h137l-55 -264h-184q-110 0 -172 54t-62 151q0 32 10 80 l86 403q5 25 5 29q0 45 -54 45h-149z" />
<glyph unicode="|" horiz-adv-x="700" d="M35 -356l416 1958h260l-416 -1958h-260z" />
<glyph unicode="}" horiz-adv-x="829" d="M-68 -291l56 264h137q60 0 74 68l75 354q27 133 125 205q-45 54 -45 133q0 33 11 86l69 328q6 27 6 39q0 45 -47 45h-137l55 264h185q110 0 171.5 -54t61.5 -151q0 -32 -10 -80l-86 -403q-4 -20 -4 -29q0 -45 53 -45h149l-55 -262h-147q-65 0 -80 -61l-98 -461 q-23 -112 -101.5 -176t-191.5 -64h-226z" />
<glyph unicode="~" horiz-adv-x="1239" d="M135 522q28 194 119.5 282.5t222.5 88.5q56 0 111 -18t92 -39.5t83 -39.5t85 -18q45 0 70.5 27t37.5 82h228q-28 -194 -119.5 -282.5t-222.5 -88.5q-56 0 -111 18t-92 39.5t-83 39.5t-85 18q-45 0 -71 -27t-38 -82h-227z" />
<glyph unicode="&#xa1;" horiz-adv-x="714" d="M20 -356l244 1036h256l-196 -1036h-304zM274 948q0 88 56 145.5t135 57.5q69 0 118.5 -43.5t49.5 -110.5q0 -88 -55.5 -145t-135.5 -57q-69 0 -118.5 43t-49.5 110z" />
<glyph unicode="&#xa2;" horiz-adv-x="1202" d="M172 676q0 214 140 384t350 208l59 276h268l-61 -293q97 -31 169.5 -94t112.5 -151l-256 -136q-29 62 -83 98t-130 36q-121 0 -205.5 -87t-84.5 -210q0 -103 65 -169.5t172 -66.5q139 0 225 113l191 -181q-160 -187 -399 -202l-54 -250h-268l61 293q-124 55 -198 169 t-74 263z" />
<glyph unicode="&#xa3;" horiz-adv-x="1222" d="M-20 0l61 287h152l67 321h-151l57 266h149l52 238q40 182 174 294t317 112q191 0 302.5 -120.5t111.5 -320.5h-289q-2 65 -44 105.5t-112 40.5q-69 0 -118.5 -42t-63.5 -106l-43 -201h397l-57 -266h-397l-68 -321h635l-61 -287h-1071z" />
<glyph unicode="&#xa4;" horiz-adv-x="1253" d="M158 367l145 143q-49 93 -49 201q0 109 49 202l-145 146l168 164l143 -144q86 47 199 47q112 0 198 -47l144 144l168 -164l-146 -146q49 -93 49 -202q0 -108 -49 -201l146 -143l-168 -164l-144 143q-90 -49 -198 -49q-109 0 -199 49l-143 -143zM475 711q0 -83 54.5 -139 t138.5 -56t138 56t54 139q0 85 -54 141.5t-138 56.5t-138.5 -56.5t-54.5 -141.5z" />
<glyph unicode="&#xa5;" horiz-adv-x="1370" d="M109 428l45 215h389l-45 154h-312l45 215h201l-143 483h307l170 -571l412 571h319l-350 -483h203l-45 -215h-314l-110 -154h391l-45 -215h-414l-90 -428h-293l92 428h-413z" />
<glyph unicode="&#xa6;" horiz-adv-x="700" d="M35 -356l162 766h260l-162 -766h-260zM289 836l162 766h260l-162 -766h-260z" />
<glyph unicode="&#xa7;" horiz-adv-x="1198" d="M76 156h260q3 -53 51.5 -85t116.5 -32q70 0 116 34t46 85q0 54 -64 73q-15 5 -86 21t-113 29q-127 38 -195.5 130.5t-68.5 217.5q0 126 62.5 226t169.5 146q-47 64 -47 156q0 155 117 258t290 103t283 -95.5t110 -251.5h-256q0 49 -40.5 77t-106.5 28q-60 0 -99.5 -27.5 t-39.5 -68.5q0 -28 17.5 -43.5t55.5 -28.5q23 -8 82 -22.5t90 -24.5q133 -44 203 -134t70 -216q0 -121 -59.5 -220.5t-161.5 -150.5q45 -62 45 -156q0 -165 -125 -276t-310 -111q-180 0 -296.5 99.5t-116.5 259.5zM391 666q0 -89 70.5 -143t169.5 -54q97 0 156 58t59 147 q0 88 -69.5 142t-166.5 54q-98 0 -158.5 -58t-60.5 -146z" />
<glyph unicode="&#xa8;" horiz-adv-x="1300" d="M457 1298q0 79 48.5 129t121.5 50q62 0 105.5 -39t43.5 -99q0 -78 -48 -128t-120 -50q-63 0 -107 38.5t-44 98.5zM866 1298q0 79 48.5 129t121.5 50q62 0 106 -39t44 -99q0 -78 -48 -128t-120 -50q-63 0 -107.5 38.5t-44.5 98.5z" />
<glyph unicode="&#xa9;" horiz-adv-x="1693" d="M137 748q0 210 97 382.5t271 272.5t390 100t390 -100t271 -272.5t97 -382.5t-97 -383t-271 -273t-390 -100t-390 100t-271 273t-97 383zM356 748q0 -231 152.5 -386t386.5 -155t386.5 155t152.5 386t-152.5 385.5t-386.5 154.5t-386.5 -154.5t-152.5 -385.5zM500 745 q0 175 114.5 292.5t290.5 117.5q109 0 198 -48.5t142 -133.5l-184 -127q-55 88 -156 88q-78 0 -129 -53.5t-51 -135.5t51 -135t129 -53q100 0 158 90l182 -127q-53 -86 -142 -135t-198 -49q-176 0 -290.5 117t-114.5 292z" />
<glyph unicode="&#xaa;" horiz-adv-x="811" d="M188 1001q0 102 67 159.5t177 66.5l221 16v6q0 33 -25.5 54.5t-64.5 21.5q-35 0 -61 -16t-37 -43h-201q22 111 110.5 181.5t213.5 70.5q116 0 193 -66t77 -172q0 -41 -6 -68l-88 -409h-197l8 41q-66 -56 -163 -56q-98 0 -161 58.5t-63 154.5zM391 1018q0 -29 23.5 -47.5 t66.5 -18.5q52 0 88.5 26t44.5 69l11 49l-158 -17q-76 -6 -76 -61z" />
<glyph unicode="&#xab;" horiz-adv-x="1214" d="M117 555l350 379h291l-361 -387l197 -387h-279zM537 555l350 379h291l-361 -387l197 -387h-279z" />
<glyph unicode="&#xac;" horiz-adv-x="1296" d="M158 575l55 259h1008l-136 -635h-260l80 376h-747z" />
<glyph unicode="&#xad;" horiz-adv-x="718" d="M86 446l57 271h519l-58 -271h-518z" />
<glyph unicode="&#xae;" horiz-adv-x="933" d="M207 1133q0 163 112 275t279 112t279 -112t112 -275q0 -164 -112.5 -277t-278.5 -113t-278.5 113t-112.5 277zM317 1133q0 -122 79.5 -202.5t201.5 -80.5t201.5 80.5t79.5 202.5q0 121 -79.5 201.5t-201.5 80.5t-201.5 -80.5t-79.5 -201.5zM449 950v379h167 q65 0 108.5 -41t43.5 -102q0 -75 -59 -115l61 -121h-121l-47 94h-45v-94h-108zM557 1143h59q18 0 29.5 11.5t11.5 29.5t-11.5 29.5t-29.5 11.5h-59v-82z" />
<glyph unicode="&#xaf;" horiz-adv-x="1300" d="M494 1219l43 200h612l-43 -200h-612z" />
<glyph unicode="&#xb0;" horiz-adv-x="753" d="M227 1223q0 126 83.5 210.5t215.5 84.5t215.5 -84.5t83.5 -210.5q0 -128 -83.5 -212.5t-215.5 -84.5t-215.5 84.5t-83.5 212.5zM399 1223q0 -55 35.5 -92t91.5 -37t92.5 37t36.5 92t-36.5 91t-92.5 36t-91.5 -36t-35.5 -91z" />
<glyph unicode="&#xb1;" horiz-adv-x="1296" d="M70 39l55 258h954l-55 -258h-954zM225 776l56 256h348l69 328h258l-69 -328h348l-55 -256h-349l-69 -327h-258l69 327h-348z" />
<glyph unicode="&#xb2;" horiz-adv-x="806" d="M178 805l39 186l379 295q29 23 44 37t27.5 36.5t12.5 47.5q0 31 -24 49.5t-60 18.5q-35 0 -58.5 -17t-29.5 -49h-209q17 123 104.5 200t212.5 77q121 0 199 -71t78 -177q0 -101 -49 -171.5t-152 -144.5l-160 -114h281l-43 -203h-592z" />
<glyph unicode="&#xb3;" horiz-adv-x="806" d="M205 1049v14h213q3 -29 30.5 -48.5t65.5 -19.5q45 0 73.5 25.5t28.5 69.5q0 28 -25 46.5t-67 18.5h-71l39 182h100q39 0 63.5 21t24.5 57q0 31 -24.5 49.5t-59.5 18.5q-75 0 -90 -60h-209q15 116 102 189.5t211 73.5q121 0 199 -66t78 -172q0 -137 -113 -219 q49 -62 49 -146q0 -123 -95.5 -206.5t-229.5 -83.5q-126 0 -209.5 72t-83.5 184z" />
<glyph unicode="&#xb4;" horiz-adv-x="1300" d="M666 1159l151 318h344l-307 -318h-188z" />
<glyph unicode="&#xb5;" horiz-adv-x="1204" d="M139 -434v1466h279v-602q0 -76 50 -129t132 -53q84 0 135 52.5t51 131.5v600h279v-1032h-272v66q-110 -89 -256 -89q-64 0 -129 19l30 -430h-299z" />
<glyph unicode="&#xb6;" horiz-adv-x="1325" d="M223 946q0 241 149 395t390 154h659l-55 -256h-174l-326 -1528h-260l326 1528h-156l-143 -676q-208 13 -309 118t-101 265z" />
<glyph unicode="&#xb7;" horiz-adv-x="583" d="M131 580q0 88 55.5 145t135.5 57q69 0 118 -43t49 -110q0 -88 -55.5 -145.5t-134.5 -57.5q-69 0 -118.5 43.5t-49.5 110.5z" />
<glyph unicode="&#xb8;" horiz-adv-x="1300" d="M264 -426l33 145h152q23 0 36 16t13 36q0 16 -11 26t-32 10h-115l133 265l145 2l-71 -144q64 -15 99.5 -57.5t35.5 -99.5q0 -85 -59.5 -142t-151.5 -57h-207z" />
<glyph unicode="&#xb9;" horiz-adv-x="796" d="M276 1317l48 223l245 131h211l-184 -866h-211l137 643z" />
<glyph unicode="&#xba;" horiz-adv-x="890" d="M211 1114q0 165 119 284.5t286 119.5q142 0 237 -91t95 -235q0 -165 -119 -284.5t-286 -119.5q-142 0 -237 91t-95 235zM418 1135q0 -61 40 -102.5t103 -41.5q74 0 127 53.5t53 126.5q0 61 -40 102.5t-103 41.5q-74 0 -127 -53.5t-53 -126.5z" />
<glyph unicode="&#xbb;" horiz-adv-x="1214" d="M51 162l361 387l-197 387h279l198 -395l-350 -379h-291zM471 162l360 387l-196 387h278l199 -395l-350 -379h-291z" />
<glyph unicode="&#xbc;" horiz-adv-x="2078" d="M342 1141l47 223l246 131h211l-184 -866h-211l137 643zM358 0l1153 1495h248l-1153 -1495h-248zM1149 211l33 154l444 503h221l-100 -477h106l-38 -180h-107l-45 -211h-203l45 211h-356zM1401 391h143l45 213z" />
<glyph unicode="&#xbd;" horiz-adv-x="2134" d="M342 1141l47 223l246 131h211l-184 -866h-211l137 643zM358 0l1153 1495h248l-1153 -1495h-248zM1229 0l39 186l379 295q29 23 44 37t27.5 36.5t12.5 47.5q0 31 -24 49.5t-60 18.5q-35 0 -58.5 -17t-29.5 -49h-209q17 123 104.5 200t212.5 77q121 0 199 -71t78 -177 q0 -101 -49 -171.5t-152 -144.5l-160 -114h281l-43 -203h-592z" />
<glyph unicode="&#xbe;" horiz-adv-x="2170" d="M276 872v15h213q3 -29 31 -48.5t66 -19.5q45 0 73.5 25.5t28.5 68.5q0 28 -25 47t-67 19h-72l39 182h101q39 0 63.5 21t24.5 57q0 31 -24.5 49.5t-59.5 18.5q-75 0 -90 -60h-209q15 116 102 189t211 73q121 0 198.5 -65.5t77.5 -171.5q0 -137 -112 -219q49 -62 49 -146 q0 -123 -96 -207t-230 -84q-126 0 -209.5 72t-83.5 184zM451 0l1153 1495h247l-1153 -1495h-247zM1241 211l33 154l444 503h221l-100 -477h107l-39 -180h-107l-45 -211h-203l45 211h-356zM1493 391h143l45 213z" />
<glyph unicode="&#xbf;" horiz-adv-x="1042" d="M-31 4q0 83 21.5 150.5t66.5 123.5t96.5 99.5t129.5 95.5q80 53 115 94t46 92l5 21h268l-8 -39q-28 -132 -83 -207t-186 -162q-87 -57 -132.5 -108.5t-45.5 -122.5q0 -59 41 -97t107 -38q65 0 114 45.5t58 116.5h290q-25 -195 -163 -321t-330 -126q-179 0 -294.5 109.5 t-115.5 273.5zM465 948q0 88 55.5 145.5t134.5 57.5q69 0 118.5 -43.5t49.5 -110.5q0 -88 -55.5 -145t-134.5 -57q-69 0 -118.5 43t-49.5 110z" />
<glyph unicode="&#xc0;" horiz-adv-x="1333" d="M-84 0l809 1495h301l170 -1495h-291l-24 213h-553l-115 -213h-297zM479 496h371l-66 567zM655 1907h344l17 -318h-189z" />
<glyph unicode="&#xc1;" horiz-adv-x="1333" d="M-84 0l809 1495h301l170 -1495h-291l-24 213h-553l-115 -213h-297zM479 496h371l-66 567zM774 1589l152 318h344l-307 -318h-189z" />
<glyph unicode="&#xc2;" horiz-adv-x="1333" d="M-84 0l809 1495h301l170 -1495h-291l-24 213h-553l-115 -213h-297zM479 496h371l-66 567zM573 1585l289 324h201l154 -324h-189l-98 127l-168 -127h-189z" />
<glyph unicode="&#xc3;" horiz-adv-x="1333" d="M-84 0l809 1495h301l170 -1495h-291l-24 213h-553l-115 -213h-297zM479 496h371l-66 567zM512 1606q19 84 51.5 144.5t72.5 93t79.5 47t81.5 14.5q47 0 89 -15t67.5 -33.5t58 -33.5t61.5 -15q76 0 107 86h166q-18 -83 -50.5 -143.5t-72.5 -93t-80 -47.5t-82 -15 q-47 0 -89 15t-68 33.5t-58.5 33.5t-61.5 15q-75 0 -106 -86h-166z" />
<glyph unicode="&#xc4;" horiz-adv-x="1333" d="M-84 0l809 1495h301l170 -1495h-291l-24 213h-553l-115 -213h-297zM479 496h371l-66 567zM565 1729q0 79 48.5 128.5t121.5 49.5q62 0 106 -39t44 -99q0 -78 -48 -128t-120 -50q-63 0 -107.5 39t-44.5 99zM975 1729q0 79 48.5 128.5t121.5 49.5q62 0 105.5 -39t43.5 -99 q0 -78 -48 -128t-120 -50q-63 0 -107 39t-44 99z" />
<glyph unicode="&#xc5;" horiz-adv-x="1333" d="M-84 0l768 1421q-51 57 -51 142q0 119 80 198.5t196 79.5q106 0 172 -60t66 -155q0 -69 -29.5 -127.5t-81.5 -97.5l160 -1401h-291l-24 213h-553l-115 -213h-297zM479 496h371l-66 567zM791 1579q0 -36 24 -60t66 -24q48 0 78 33t30 82q0 36 -24 60t-66 24q-48 0 -78 -33 t-30 -82z" />
<glyph unicode="&#xc6;" horiz-adv-x="1992" d="M-109 0l1035 1495h1167l-61 -287h-752l-66 -313h418l-61 -287h-418l-68 -321h752l-61 -287h-1041l45 213h-442l-148 -213h-299zM532 496h308l137 647z" />
<glyph unicode="&#xc7;" horiz-adv-x="1525" d="M135 655q0 170 66 328t178.5 276t270.5 188.5t333 70.5q213 0 376.5 -98t244.5 -267l-263 -152q-51 105 -151.5 166.5t-237.5 61.5q-146 0 -267 -75t-189 -200.5t-68 -271.5q0 -185 117.5 -300.5t316.5 -115.5q114 0 213 46t172 132l197 -190q-117 -131 -274.5 -204 t-333.5 -73q-34 0 -68 3l-25 -50q65 -15 100.5 -57.5t35.5 -99.5q0 -85 -59.5 -142t-151.5 -57h-207l33 145h151q23 0 36 16t13 36q0 16 -11 26t-32 10h-114l98 195q-225 60 -362.5 234.5t-137.5 418.5z" />
<glyph unicode="&#xc8;" horiz-adv-x="1425" d="M47 0l318 1495h1161l-62 -287h-870l-66 -313h484l-62 -287h-483l-68 -321h871l-62 -287h-1161zM731 1907h344l17 -318h-189z" />
<glyph unicode="&#xc9;" horiz-adv-x="1425" d="M47 0l318 1495h1161l-62 -287h-870l-66 -313h484l-62 -287h-483l-68 -321h871l-62 -287h-1161zM850 1589l151 318h345l-308 -318h-188z" />
<glyph unicode="&#xca;" horiz-adv-x="1425" d="M47 0l318 1495h1161l-62 -287h-870l-66 -313h484l-62 -287h-483l-68 -321h871l-62 -287h-1161zM649 1585l289 324h201l153 -324h-188l-98 127l-168 -127h-189z" />
<glyph unicode="&#xcb;" horiz-adv-x="1425" d="M47 0l318 1495h1161l-62 -287h-870l-66 -313h484l-62 -287h-483l-68 -321h871l-62 -287h-1161zM641 1729q0 79 48.5 128.5t121.5 49.5q62 0 106 -39t44 -99q0 -78 -48 -128t-120 -50q-63 0 -107.5 39t-44.5 99zM1051 1729q0 79 48.5 128.5t121.5 49.5q62 0 105.5 -39 t43.5 -99q0 -78 -48 -128t-120 -50q-63 0 -107 39t-44 99z" />
<glyph unicode="&#xcc;" horiz-adv-x="606" d="M47 0l318 1495h292l-317 -1495h-293zM293 1907h344l16 -318h-188z" />
<glyph unicode="&#xcd;" horiz-adv-x="606" d="M47 0l318 1495h292l-317 -1495h-293zM412 1589l151 318h344l-307 -318h-188z" />
<glyph unicode="&#xce;" horiz-adv-x="606" d="M47 0l318 1495h292l-317 -1495h-293zM211 1585l289 324h200l154 -324h-188l-99 127l-168 -127h-188z" />
<glyph unicode="&#xcf;" horiz-adv-x="606" d="M47 0l318 1495h292l-317 -1495h-293zM203 1729q0 79 48.5 128.5t121.5 49.5q62 0 105.5 -39t43.5 -99q0 -78 -48 -128t-120 -50q-63 0 -107 39t-44 99zM612 1729q0 79 48.5 128.5t121.5 49.5q62 0 106 -39t44 -99q0 -78 -48 -128t-120 -50q-63 0 -107.5 39t-44.5 99z" />
<glyph unicode="&#xd0;" horiz-adv-x="1495" d="M23 618l55 265h158l129 612h413q197 0 355 -85.5t247.5 -238.5t89.5 -346q0 -167 -65 -319.5t-174 -263.5t-260.5 -176.5t-317.5 -65.5h-606l131 618h-155zM401 287h277q140 0 255.5 69.5t180 187t64.5 255.5q0 179 -118 294t-310 115h-154l-68 -325h306l-56 -265h-307z " />
<glyph unicode="&#xd1;" horiz-adv-x="1519" d="M47 0l318 1495h290l416 -989l211 989h289l-318 -1495h-288l-416 991l-211 -991h-291zM606 1606q19 84 51.5 144.5t72.5 93t79.5 47t81.5 14.5q47 0 89 -15t67.5 -33.5t58 -33.5t61.5 -15q76 0 107 86h166q-18 -83 -50.5 -143.5t-72.5 -93t-80 -47.5t-82 -15q-47 0 -89 15 t-67.5 33.5t-58 33.5t-61.5 15q-76 0 -107 -86h-166z" />
<glyph unicode="&#xd2;" horiz-adv-x="1724" d="M135 668q0 173 66.5 330.5t178.5 271t268 181t327 67.5q204 0 366.5 -88t254.5 -246t92 -357q0 -173 -66.5 -330.5t-178.5 -271t-268 -181t-327 -67.5q-204 0 -366.5 88t-254.5 246t-92 357zM428 694q0 -187 124.5 -307.5t324.5 -120.5q146 0 265.5 73.5t186 195.5 t66.5 266q0 187 -124.5 307.5t-324.5 120.5q-146 0 -265.5 -73.5t-186 -195.5t-66.5 -266zM850 1907h344l16 -318h-188z" />
<glyph unicode="&#xd3;" horiz-adv-x="1724" d="M135 668q0 173 66.5 330.5t178.5 271t268 181t327 67.5q204 0 366.5 -88t254.5 -246t92 -357q0 -173 -66.5 -330.5t-178.5 -271t-268 -181t-327 -67.5q-204 0 -366.5 88t-254.5 246t-92 357zM428 694q0 -187 124.5 -307.5t324.5 -120.5q146 0 265.5 73.5t186 195.5 t66.5 266q0 187 -124.5 307.5t-324.5 120.5q-146 0 -265.5 -73.5t-186 -195.5t-66.5 -266zM969 1589l151 318h344l-307 -318h-188z" />
<glyph unicode="&#xd4;" horiz-adv-x="1724" d="M135 668q0 173 66.5 330.5t178.5 271t268 181t327 67.5q204 0 366.5 -88t254.5 -246t92 -357q0 -173 -66.5 -330.5t-178.5 -271t-268 -181t-327 -67.5q-204 0 -366.5 88t-254.5 246t-92 357zM428 694q0 -187 124.5 -307.5t324.5 -120.5q146 0 265.5 73.5t186 195.5 t66.5 266q0 187 -124.5 307.5t-324.5 120.5q-146 0 -265.5 -73.5t-186 -195.5t-66.5 -266zM768 1585l289 324h200l154 -324h-188l-99 127l-168 -127h-188z" />
<glyph unicode="&#xd5;" horiz-adv-x="1724" d="M135 668q0 173 66.5 330.5t178.5 271t268 181t327 67.5q204 0 366.5 -88t254.5 -246t92 -357q0 -173 -66.5 -330.5t-178.5 -271t-268 -181t-327 -67.5q-204 0 -366.5 88t-254.5 246t-92 357zM428 694q0 -187 124.5 -307.5t324.5 -120.5q146 0 265.5 73.5t186 195.5 t66.5 266q0 187 -124.5 307.5t-324.5 120.5q-146 0 -265.5 -73.5t-186 -195.5t-66.5 -266zM707 1606q19 84 51.5 144.5t72 93t79 47t81.5 14.5q47 0 89 -15t68 -33.5t58.5 -33.5t61.5 -15q75 0 106 86h166q-18 -83 -50.5 -143.5t-72.5 -93t-80 -47.5t-82 -15q-47 0 -89 15 t-67.5 33.5t-58 33.5t-61.5 15q-76 0 -107 -86h-165z" />
<glyph unicode="&#xd6;" horiz-adv-x="1724" d="M135 668q0 173 66.5 330.5t178.5 271t268 181t327 67.5q204 0 366.5 -88t254.5 -246t92 -357q0 -173 -66.5 -330.5t-178.5 -271t-268 -181t-327 -67.5q-204 0 -366.5 88t-254.5 246t-92 357zM428 694q0 -187 124.5 -307.5t324.5 -120.5q146 0 265.5 73.5t186 195.5 t66.5 266q0 187 -124.5 307.5t-324.5 120.5q-146 0 -265.5 -73.5t-186 -195.5t-66.5 -266zM760 1729q0 79 48.5 128.5t121.5 49.5q62 0 105.5 -39t43.5 -99q0 -78 -48 -128t-120 -50q-63 0 -107 39t-44 99zM1169 1729q0 79 48.5 128.5t121.5 49.5q62 0 106 -39t44 -99 q0 -78 -48 -128t-120 -50q-63 0 -107.5 39t-44.5 99z" />
<glyph unicode="&#xd7;" horiz-adv-x="1296" d="M152 432l352 287l-232 287l211 170l232 -287l352 287l158 -199l-353 -287l232 -287l-211 -170l-231 287l-353 -287z" />
<glyph unicode="&#xd8;" horiz-adv-x="1724" d="M41 29l225 223q-131 179 -131 416q0 173 66.5 330.5t178.5 271t268 181t327 67.5q246 0 430 -129l227 227l150 -150l-226 -223q132 -181 132 -416q0 -173 -66.5 -330.5t-178.5 -271t-268 -181t-327 -67.5q-246 0 -430 129l-228 -227zM428 694q0 -121 57 -223l701 700 q-107 58 -240 58q-146 0 -265.5 -73.5t-186 -195.5t-66.5 -266zM637 324q107 -58 240 -58q146 0 265.5 73.5t186 195.5t66.5 266q0 120 -58 223z" />
<glyph unicode="&#xd9;" horiz-adv-x="1488" d="M156 483q0 76 16 154l182 858h293l-188 -887q-8 -40 -8 -71q0 -118 73.5 -194.5t198.5 -76.5q126 0 217 75.5t117 199.5l203 954h290l-213 -999q-34 -160 -129 -279t-227.5 -179.5t-284.5 -60.5q-240 0 -390 142t-150 364zM733 1907h344l17 -318h-189z" />
<glyph unicode="&#xda;" horiz-adv-x="1488" d="M156 483q0 76 16 154l182 858h293l-188 -887q-8 -40 -8 -71q0 -118 73.5 -194.5t198.5 -76.5q126 0 217 75.5t117 199.5l203 954h290l-213 -999q-34 -160 -129 -279t-227.5 -179.5t-284.5 -60.5q-240 0 -390 142t-150 364zM852 1589l152 318h344l-308 -318h-188z" />
<glyph unicode="&#xdb;" horiz-adv-x="1488" d="M156 483q0 76 16 154l182 858h293l-188 -887q-8 -40 -8 -71q0 -118 73.5 -194.5t198.5 -76.5q126 0 217 75.5t117 199.5l203 954h290l-213 -999q-34 -160 -129 -279t-227.5 -179.5t-284.5 -60.5q-240 0 -390 142t-150 364zM651 1585l289 324h201l153 -324h-188l-98 127 l-168 -127h-189z" />
<glyph unicode="&#xdc;" horiz-adv-x="1488" d="M156 483q0 76 16 154l182 858h293l-188 -887q-8 -40 -8 -71q0 -118 73.5 -194.5t198.5 -76.5q126 0 217 75.5t117 199.5l203 954h290l-213 -999q-34 -160 -129 -279t-227.5 -179.5t-284.5 -60.5q-240 0 -390 142t-150 364zM643 1729q0 79 48.5 128.5t121.5 49.5 q62 0 106 -39t44 -99q0 -78 -48 -128t-120 -50q-63 0 -107.5 39t-44.5 99zM1053 1729q0 79 48.5 128.5t121.5 49.5q62 0 105.5 -39t43.5 -99q0 -78 -48 -128t-120 -50q-63 0 -107 39t-44 99z" />
<glyph unicode="&#xdd;" horiz-adv-x="1353" d="M225 1495h310l198 -678l490 678h321l-727 -1001l-104 -494h-293l104 487zM782 1589l152 318h344l-307 -318h-189z" />
<glyph unicode="&#xde;" horiz-adv-x="1415" d="M47 0l318 1495h292l-43 -207h293q216 0 357 -135t141 -346q0 -160 -78.5 -296.5t-214 -216t-295.5 -79.5h-432l-45 -215h-293zM446 500h392q116 0 195 82t79 198q0 98 -65 161t-168 63h-326z" />
<glyph unicode="&#xdf;" horiz-adv-x="1298" d="M29 0l252 1186q39 184 181 290.5t339 106.5q134 0 242.5 -47t172.5 -136.5t64 -205.5q0 -118 -56.5 -216.5t-154.5 -154.5q166 -105 166 -299q0 -140 -73.5 -261t-197.5 -192t-266 -71h-249l57 266h229q93 0 158 68.5t65 161.5q0 76 -49 128t-141 52h-172l57 266h148 q88 0 145.5 60t57.5 149q0 76 -60.5 119t-157.5 43q-96 0 -158.5 -48.5t-82.5 -142.5l-238 -1122h-278z" />
<glyph unicode="&#xe0;" horiz-adv-x="1103" d="M27 287q0 149 98 232t266 99l336 29q2 10 2 23q0 53 -43.5 89t-107.5 36q-60 0 -105.5 -30t-60.5 -79h-269q30 162 157.5 265.5t307.5 103.5q169 0 282.5 -97.5t113.5 -250.5q0 -42 -11 -95l-131 -612h-266l12 55q-93 -78 -241 -78q-150 0 -245 85.5t-95 224.5zM305 311 q0 -46 38.5 -75t107.5 -29q84 0 143 42t74 111l18 84l-254 -24q-65 -7 -96 -36t-31 -73zM444 1477h344l17 -318h-189z" />
<glyph unicode="&#xe1;" horiz-adv-x="1103" d="M27 287q0 149 98 232t266 99l336 29q2 10 2 23q0 53 -43.5 89t-107.5 36q-60 0 -105.5 -30t-60.5 -79h-269q30 162 157.5 265.5t307.5 103.5q169 0 282.5 -97.5t113.5 -250.5q0 -42 -11 -95l-131 -612h-266l12 55q-93 -78 -241 -78q-150 0 -245 85.5t-95 224.5zM305 311 q0 -46 38.5 -75t107.5 -29q84 0 143 42t74 111l18 84l-254 -24q-65 -7 -96 -36t-31 -73zM563 1159l152 318h344l-307 -318h-189z" />
<glyph unicode="&#xe2;" horiz-adv-x="1103" d="M27 287q0 149 98 232t266 99l336 29q2 10 2 23q0 53 -43.5 89t-107.5 36q-60 0 -105.5 -30t-60.5 -79h-269q30 162 157.5 265.5t307.5 103.5q169 0 282.5 -97.5t113.5 -250.5q0 -42 -11 -95l-131 -612h-266l12 55q-93 -78 -241 -78q-150 0 -245 85.5t-95 224.5zM305 311 q0 -46 38.5 -75t107.5 -29q84 0 143 42t74 111l18 84l-254 -24q-65 -7 -96 -36t-31 -73zM362 1155l289 324h201l154 -324h-189l-98 127l-168 -127h-189z" />
<glyph unicode="&#xe3;" horiz-adv-x="1103" d="M27 287q0 149 98 232t266 99l336 29q2 10 2 23q0 53 -43.5 89t-107.5 36q-60 0 -105.5 -30t-60.5 -79h-269q30 162 157.5 265.5t307.5 103.5q169 0 282.5 -97.5t113.5 -250.5q0 -42 -11 -95l-131 -612h-266l12 55q-93 -78 -241 -78q-150 0 -245 85.5t-95 224.5zM301 1176 q19 84 51.5 144.5t72.5 93t79.5 47t81.5 14.5q47 0 89 -15t67.5 -33.5t58 -33.5t61.5 -15q76 0 107 86h166q-18 -83 -50.5 -143.5t-72.5 -93t-80 -47.5t-82 -15q-47 0 -89 15t-68 33.5t-58.5 33.5t-61.5 15q-75 0 -106 -86h-166zM305 311q0 -46 38.5 -75t107.5 -29 q84 0 143 42t74 111l18 84l-254 -24q-65 -7 -96 -36t-31 -73z" />
<glyph unicode="&#xe4;" horiz-adv-x="1103" d="M27 287q0 149 98 232t266 99l336 29q2 10 2 23q0 53 -43.5 89t-107.5 36q-60 0 -105.5 -30t-60.5 -79h-269q30 162 157.5 265.5t307.5 103.5q169 0 282.5 -97.5t113.5 -250.5q0 -42 -11 -95l-131 -612h-266l12 55q-93 -78 -241 -78q-150 0 -245 85.5t-95 224.5zM305 311 q0 -46 38.5 -75t107.5 -29q84 0 143 42t74 111l18 84l-254 -24q-65 -7 -96 -36t-31 -73zM354 1298q0 79 48.5 129t121.5 50q62 0 106 -39t44 -99q0 -78 -48 -128t-120 -50q-63 0 -107.5 38.5t-44.5 98.5zM764 1298q0 79 48.5 129t121.5 50q62 0 105.5 -39t43.5 -99 q0 -78 -48 -128t-120 -50q-63 0 -107 38.5t-44 98.5z" />
<glyph unicode="&#xe5;" horiz-adv-x="1103" d="M27 287q0 149 98 232t266 99l336 29q2 10 2 23q0 53 -43.5 89t-107.5 36q-60 0 -105.5 -30t-60.5 -79h-269q30 162 157.5 265.5t307.5 103.5q169 0 282.5 -97.5t113.5 -250.5q0 -42 -11 -95l-131 -612h-266l12 55q-93 -78 -241 -78q-150 0 -245 85.5t-95 224.5zM305 311 q0 -46 38.5 -75t107.5 -29q84 0 143 42t74 111l18 84l-254 -24q-65 -7 -96 -36t-31 -73zM469 1325q0 119 80 199t196 80q106 0 172 -60t66 -155q0 -119 -80 -199t-196 -80q-106 0 -172 60t-66 155zM627 1341q0 -36 24 -60t66 -24q48 0 78 33t30 82q0 36 -24 60t-66 24 q-48 0 -78 -33t-30 -82z" />
<glyph unicode="&#xe6;" horiz-adv-x="1761" d="M27 287q0 148 99 231.5t267 99.5l309 29q3 15 3 25q0 53 -39 90t-99 37q-55 0 -98.5 -30.5t-58.5 -80.5h-267q31 162 154.5 264.5t298.5 102.5q189 0 299 -123q151 123 348 123q205 0 334 -129.5t129 -329.5q0 -84 -31 -186h-739q19 -78 82.5 -126t155.5 -48 q68 0 125.5 30.5t97.5 83.5l207 -147q-76 -107 -194.5 -167.5t-258.5 -60.5q-120 0 -219 44.5t-166 125.5q-129 -168 -375 -168q-160 0 -262 87t-102 223zM305 307q0 -45 36 -72.5t99 -27.5q78 0 134 42t69 111l16 82l-225 -22q-129 -14 -129 -113zM961 623h477 q-10 83 -71.5 129.5t-154.5 46.5q-88 0 -154 -46t-97 -130z" />
<glyph unicode="&#xe7;" horiz-adv-x="1081" d="M63 455q0 157 78 295t215 221.5t299 83.5q152 0 271.5 -73.5t175.5 -197.5l-256 -135q-62 133 -213 133q-121 0 -206 -87t-85 -210q0 -103 65.5 -169t172.5 -66q139 0 225 112l190 -180q-83 -97 -196.5 -151t-243.5 -54q-19 0 -37 3l-24 -50q64 -15 99.5 -57.5 t35.5 -99.5q0 -85 -59.5 -142t-151.5 -57h-207l33 145h151q23 0 36 16t13 36q0 16 -11 26t-32 10h-114l98 197q-146 47 -234 167t-88 284z" />
<glyph unicode="&#xe8;" horiz-adv-x="1171" d="M63 457q0 119 46.5 229.5t124.5 191.5t187 129t228 48q205 0 336 -130t131 -331q0 -86 -31 -184h-743q19 -77 82.5 -124.5t155.5 -47.5q139 3 223 112l211 -147q-78 -106 -197.5 -167t-259.5 -61q-217 0 -355.5 135.5t-138.5 346.5zM367 623h479q-12 82 -74 128t-154 46 q-89 0 -154.5 -45.5t-96.5 -128.5zM481 1477h344l17 -318h-189z" />
<glyph unicode="&#xe9;" horiz-adv-x="1171" d="M63 457q0 119 46.5 229.5t124.5 191.5t187 129t228 48q205 0 336 -130t131 -331q0 -86 -31 -184h-743q19 -77 82.5 -124.5t155.5 -47.5q139 3 223 112l211 -147q-78 -106 -197.5 -167t-259.5 -61q-217 0 -355.5 135.5t-138.5 346.5zM367 623h479q-12 82 -74 128t-154 46 q-89 0 -154.5 -45.5t-96.5 -128.5zM600 1159l152 318h344l-308 -318h-188z" />
<glyph unicode="&#xea;" horiz-adv-x="1171" d="M63 457q0 119 46.5 229.5t124.5 191.5t187 129t228 48q205 0 336 -130t131 -331q0 -86 -31 -184h-743q19 -77 82.5 -124.5t155.5 -47.5q139 3 223 112l211 -147q-78 -106 -197.5 -167t-259.5 -61q-217 0 -355.5 135.5t-138.5 346.5zM367 623h479q-12 82 -74 128t-154 46 q-89 0 -154.5 -45.5t-96.5 -128.5zM399 1155l289 324h201l153 -324h-188l-98 127l-168 -127h-189z" />
<glyph unicode="&#xeb;" horiz-adv-x="1171" d="M63 457q0 119 46.5 229.5t124.5 191.5t187 129t228 48q205 0 336 -130t131 -331q0 -86 -31 -184h-743q19 -77 82.5 -124.5t155.5 -47.5q139 3 223 112l211 -147q-78 -106 -197.5 -167t-259.5 -61q-217 0 -355.5 135.5t-138.5 346.5zM367 623h479q-12 82 -74 128t-154 46 q-89 0 -154.5 -45.5t-96.5 -128.5zM391 1298q0 79 48.5 129t121.5 50q62 0 106 -39t44 -99q0 -78 -48 -128t-120 -50q-63 0 -107.5 38.5t-44.5 98.5zM801 1298q0 79 48.5 129t121.5 50q62 0 105.5 -39t43.5 -99q0 -78 -48 -128t-120 -50q-63 0 -107 38.5t-44 98.5z" />
<glyph unicode="&#xec;" d="M29 0l219 1032h278l-219 -1032h-278zM174 1477h344l17 -318h-189z" />
<glyph unicode="&#xed;" d="M29 0l219 1032h278l-219 -1032h-278zM293 1159l151 318h344l-307 -318h-188z" />
<glyph unicode="&#xee;" d="M29 0l219 1032h278l-219 -1032h-278zM92 1155l289 324h201l153 -324h-188l-98 127l-168 -127h-189z" />
<glyph unicode="&#xef;" d="M29 0l219 1032h278l-219 -1032h-278zM84 1298q0 79 48.5 129t121.5 50q62 0 105.5 -39t43.5 -99q0 -78 -48 -128t-119 -50q-63 0 -107.5 38.5t-44.5 98.5zM494 1298q0 79 48.5 129t121.5 50q62 0 105.5 -39t43.5 -99q0 -78 -48 -128t-120 -50q-63 0 -107 38.5t-44 98.5z " />
<glyph unicode="&#xf0;" horiz-adv-x="1183" d="M45 428q0 112 43.5 215.5t117 178.5t176 120t214.5 45q143 0 250 -74q-19 119 -103 234l-202 -137l-115 172l162 108q-56 41 -121 68l121 227q132 -57 231 -137l164 111l115 -170l-135 -93q167 -226 167 -548q0 -224 -80.5 -400.5t-222 -273.5t-317.5 -97 q-201 0 -333 126.5t-132 324.5zM322 459q0 -89 58 -149t152 -60q109 0 185 78t76 182q0 91 -59 151t-152 60q-109 0 -184.5 -77.5t-75.5 -184.5z" />
<glyph unicode="&#xf1;" horiz-adv-x="1208" d="M29 0l219 1032h266l-14 -63q107 86 248 86q160 0 259 -102t99 -257q0 -50 -10 -102l-127 -594h-279l123 575q8 36 8 58q0 66 -45 108.5t-123 42.5q-83 0 -141 -49t-76 -129l-129 -606h-278zM356 1176q19 84 51.5 144.5t72.5 93t79.5 47t81.5 14.5q47 0 89 -15t68 -33.5 t58.5 -33.5t61.5 -15q75 0 106 86h166q-18 -83 -50.5 -143.5t-72.5 -93t-80 -47.5t-82 -15q-47 0 -89 15t-67.5 33.5t-58 33.5t-61.5 15q-76 0 -107 -86h-166z" />
<glyph unicode="&#xf2;" horiz-adv-x="1214" d="M63 459q0 161 79 298t216.5 217.5t300.5 80.5q213 0 352.5 -135t139.5 -347q0 -161 -79 -298t-216.5 -217.5t-300.5 -80.5q-213 0 -352.5 135t-139.5 347zM340 487q0 -103 67 -170t175 -67q123 0 207.5 87t84.5 208q0 103 -67 170t-174 67q-123 0 -208 -87t-85 -208z M504 1477h344l16 -318h-188z" />
<glyph unicode="&#xf3;" horiz-adv-x="1214" d="M63 459q0 161 79 298t216.5 217.5t300.5 80.5q213 0 352.5 -135t139.5 -347q0 -161 -79 -298t-216.5 -217.5t-300.5 -80.5q-213 0 -352.5 135t-139.5 347zM340 487q0 -103 67 -170t175 -67q123 0 207.5 87t84.5 208q0 103 -67 170t-174 67q-123 0 -208 -87t-85 -208z M623 1159l151 318h344l-307 -318h-188z" />
<glyph unicode="&#xf4;" horiz-adv-x="1214" d="M63 459q0 161 79 298t216.5 217.5t300.5 80.5q213 0 352.5 -135t139.5 -347q0 -161 -79 -298t-216.5 -217.5t-300.5 -80.5q-213 0 -352.5 135t-139.5 347zM340 487q0 -103 67 -170t175 -67q123 0 207.5 87t84.5 208q0 103 -67 170t-174 67q-123 0 -208 -87t-85 -208z M422 1155l289 324h200l154 -324h-188l-99 127l-168 -127h-188z" />
<glyph unicode="&#xf5;" horiz-adv-x="1214" d="M63 459q0 161 79 298t216.5 217.5t300.5 80.5q213 0 352.5 -135t139.5 -347q0 -161 -79 -298t-216.5 -217.5t-300.5 -80.5q-213 0 -352.5 135t-139.5 347zM340 487q0 -103 67 -170t175 -67q123 0 207.5 87t84.5 208q0 103 -67 170t-174 67q-123 0 -208 -87t-85 -208z M360 1176q19 84 51.5 144.5t72.5 93t79.5 47t81.5 14.5q47 0 89 -15t68 -33.5t58.5 -33.5t61.5 -15q75 0 106 86h166q-18 -83 -50.5 -143.5t-72.5 -93t-80 -47.5t-82 -15q-47 0 -89 15t-67.5 33.5t-58 33.5t-61.5 15q-76 0 -107 -86h-166z" />
<glyph unicode="&#xf6;" horiz-adv-x="1214" d="M63 459q0 161 79 298t216.5 217.5t300.5 80.5q213 0 352.5 -135t139.5 -347q0 -161 -79 -298t-216.5 -217.5t-300.5 -80.5q-213 0 -352.5 135t-139.5 347zM340 487q0 -103 67 -170t175 -67q123 0 207.5 87t84.5 208q0 103 -67 170t-174 67q-123 0 -208 -87t-85 -208z M414 1298q0 79 48.5 129t121.5 50q62 0 105.5 -39t43.5 -99q0 -78 -48 -128t-120 -50q-63 0 -107 38.5t-44 98.5zM823 1298q0 79 48.5 129t121.5 50q62 0 106 -39t44 -99q0 -78 -48 -128t-120 -50q-63 0 -107.5 38.5t-44.5 98.5z" />
<glyph unicode="&#xf7;" horiz-adv-x="1296" d="M176 575l55 259h971l-55 -259h-971zM428 242q0 82 51.5 136t126.5 54q67 0 113.5 -40.5t46.5 -106.5q0 -82 -52 -136.5t-126 -54.5q-67 0 -113.5 41t-46.5 107zM612 1124q0 82 52 136.5t127 54.5q66 0 112.5 -41t46.5 -107q0 -82 -51.5 -136t-126.5 -54 q-67 0 -113.5 40.5t-46.5 106.5z" />
<glyph unicode="&#xf8;" horiz-adv-x="1214" d="M-18 23l161 161q-80 119 -80 275q0 161 79 298t216.5 217.5t300.5 80.5q157 0 281 -78l170 168l123 -123l-168 -166q86 -122 86 -283t-79 -298t-216.5 -217.5t-300.5 -80.5q-162 0 -289 84l-162 -161zM340 487q0 -46 16 -92l373 371q-46 16 -96 16q-123 0 -208 -87 t-85 -208zM477 270q52 -20 105 -20q123 0 207.5 87t84.5 208q0 56 -20 100z" />
<glyph unicode="&#xf9;" horiz-adv-x="1204" d="M104 334q0 44 11 104l127 594h278l-123 -575q-6 -27 -6 -60q0 -65 43 -107t119 -42q83 0 141 49t76 129l129 606h279l-220 -1032h-268l12 61q-100 -84 -241 -84q-160 0 -258.5 101.5t-98.5 255.5zM494 1477h344l16 -318h-188z" />
<glyph unicode="&#xfa;" horiz-adv-x="1204" d="M104 334q0 44 11 104l127 594h278l-123 -575q-6 -27 -6 -60q0 -65 43 -107t119 -42q83 0 141 49t76 129l129 606h279l-220 -1032h-268l12 61q-100 -84 -241 -84q-160 0 -258.5 101.5t-98.5 255.5zM612 1159l152 318h344l-307 -318h-189z" />
<glyph unicode="&#xfb;" horiz-adv-x="1204" d="M104 334q0 44 11 104l127 594h278l-123 -575q-6 -27 -6 -60q0 -65 43 -107t119 -42q83 0 141 49t76 129l129 606h279l-220 -1032h-268l12 61q-100 -84 -241 -84q-160 0 -258.5 101.5t-98.5 255.5zM412 1155l288 324h201l154 -324h-189l-98 127l-168 -127h-188z" />
<glyph unicode="&#xfc;" horiz-adv-x="1204" d="M104 334q0 44 11 104l127 594h278l-123 -575q-6 -27 -6 -60q0 -65 43 -107t119 -42q83 0 141 49t76 129l129 606h279l-220 -1032h-268l12 61q-100 -84 -241 -84q-160 0 -258.5 101.5t-98.5 255.5zM403 1298q0 79 48.5 129t121.5 50q62 0 106 -39t44 -99q0 -78 -48 -128 t-120 -50q-63 0 -107.5 38.5t-44.5 98.5zM813 1298q0 79 48.5 129t121.5 50q62 0 106 -39t44 -99q0 -78 -48 -128t-120 -50q-63 0 -107.5 38.5t-44.5 98.5z" />
<glyph unicode="&#xfd;" horiz-adv-x="1060" d="M12 -434l267 463l-156 1003h297l90 -602l346 602h301l-848 -1466h-297zM547 1159l151 318h344l-307 -318h-188z" />
<glyph unicode="&#xfe;" horiz-adv-x="1271" d="M-63 -434l423 1995h279l-123 -576q109 70 246 70q195 0 323.5 -130.5t128.5 -338.5q0 -118 -45 -229.5t-121 -195t-183.5 -134t-225.5 -50.5q-198 0 -309 121l-115 -532h-278zM410 485q0 -107 68.5 -172t168.5 -65q120 0 204.5 89t84.5 212q0 104 -64.5 169.5 t-169.5 65.5q-125 0 -208.5 -90t-83.5 -209z" />
<glyph unicode="&#xff;" horiz-adv-x="1060" d="M12 -434l267 463l-156 1003h297l90 -602l346 602h301l-848 -1466h-297zM338 1298q0 79 48.5 129t121.5 50q62 0 105.5 -39t43.5 -99q0 -78 -48 -128t-120 -50q-63 0 -107 38.5t-44 98.5zM748 1298q0 79 48.5 129t121.5 50q62 0 105.5 -39t43.5 -99q0 -78 -48 -128 t-120 -50q-63 0 -107 38.5t-44 98.5z" />
<glyph unicode="&#x152;" horiz-adv-x="2125" d="M135 670q0 167 65 319.5t174 263.5t260.5 176.5t317.5 65.5h1274l-61 -287h-752l-65 -313h417l-61 -287h-418l-67 -321h751l-61 -287h-1084q-196 0 -353.5 85.5t-247 238.5t-89.5 346zM428 696q0 -179 118 -294t310 -115h74l194 921h-196q-140 0 -255.5 -69.5t-180 -187 t-64.5 -255.5z" />
<glyph unicode="&#x153;" horiz-adv-x="1957" d="M63 455q0 161 78.5 299t215 219.5t298.5 81.5q119 0 217.5 -44t165.5 -124q80 79 183 123.5t217 44.5q205 0 335 -129.5t130 -331.5q0 -86 -31 -184h-742q18 -78 82 -126t156 -48q140 3 223 114l209 -147q-78 -106 -196.5 -167t-255.5 -61q-120 0 -219 44.5t-166 125.5 q-79 -79 -185.5 -123.5t-224.5 -44.5q-211 0 -350.5 134t-139.5 344zM340 487q0 -103 66 -170t172 -67q122 0 206 87t86 208q0 103 -66 170t-173 67q-122 0 -206.5 -87t-84.5 -208zM1155 623h479q-12 84 -73 130t-154 46q-88 0 -154.5 -46t-97.5 -130z" />
<glyph unicode="&#x178;" horiz-adv-x="1353" d="M225 1495h310l198 -678l490 678h321l-727 -1001l-104 -494h-293l104 487zM573 1729q0 79 48.5 128.5t121.5 49.5q62 0 106 -39t44 -99q0 -78 -48 -128t-120 -50q-63 0 -107.5 39t-44.5 99zM983 1729q0 79 48.5 128.5t121.5 49.5q62 0 106 -39t44 -99q0 -78 -48 -128 t-120 -50q-63 0 -107.5 39t-44.5 99z" />
<glyph unicode="&#x2c6;" horiz-adv-x="1300" d="M465 1155l289 324h200l154 -324h-188l-99 127l-168 -127h-188z" />
<glyph unicode="&#x2dc;" horiz-adv-x="1300" d="M403 1176q19 84 51.5 144.5t72.5 93t79.5 47t81.5 14.5q47 0 89 -15t68 -33.5t58.5 -33.5t61.5 -15q75 0 106 86h166q-18 -83 -50.5 -143.5t-72.5 -93t-80 -47.5t-82 -15q-47 0 -89 15t-67.5 33.5t-58 33.5t-61.5 15q-76 0 -107 -86h-166z" />
<glyph unicode="&#x2000;" horiz-adv-x="954" />
<glyph unicode="&#x2001;" horiz-adv-x="1909" />
<glyph unicode="&#x2002;" horiz-adv-x="954" />
<glyph unicode="&#x2003;" horiz-adv-x="1909" />
<glyph unicode="&#x2004;" horiz-adv-x="636" />
<glyph unicode="&#x2005;" horiz-adv-x="477" />
<glyph unicode="&#x2006;" horiz-adv-x="318" />
<glyph unicode="&#x2007;" horiz-adv-x="318" />
<glyph unicode="&#x2008;" horiz-adv-x="238" />
<glyph unicode="&#x2009;" horiz-adv-x="381" />
<glyph unicode="&#x200a;" horiz-adv-x="106" />
<glyph unicode="&#x2010;" horiz-adv-x="718" d="M86 446l57 271h519l-58 -271h-518z" />
<glyph unicode="&#x2011;" horiz-adv-x="718" d="M86 446l57 271h519l-58 -271h-518z" />
<glyph unicode="&#x2012;" horiz-adv-x="718" d="M86 446l57 271h519l-58 -271h-518z" />
<glyph unicode="&#x2013;" horiz-adv-x="1089" d="M66 451l55 262h932l-56 -262h-931z" />
<glyph unicode="&#x2014;" horiz-adv-x="1662" d="M45 455l53 254h1547l-54 -254h-1546z" />
<glyph unicode="&#x2018;" d="M233 1061q0 58 31 113l182 321h166l-118 -258q38 -19 61 -53.5t23 -77.5q0 -84 -53.5 -138.5t-131.5 -54.5q-65 0 -112.5 41.5t-47.5 106.5z" />
<glyph unicode="&#x2019;" d="M240 936l118 258q-38 19 -61 53.5t-23 77.5q0 84 53.5 138.5t131.5 54.5q65 0 112 -41.5t47 -106.5q0 -60 -30 -113l-182 -321h-166z" />
<glyph unicode="&#x201a;" d="M4 -176l119 258q-38 19 -61 53.5t-23 77.5q0 84 53 138.5t131 54.5q65 0 112.5 -41.5t47.5 -106.5q0 -58 -31 -113l-182 -321h-166z" />
<glyph unicode="&#x201c;" horiz-adv-x="946" d="M233 1061q0 58 31 113l182 321h166l-118 -258q38 -19 61 -53.5t23 -77.5q0 -84 -53.5 -138.5t-131.5 -54.5q-65 0 -112.5 41.5t-47.5 106.5zM625 1061q0 60 30 113l183 321h166l-119 -258q38 -19 61 -53.5t23 -77.5q0 -84 -53.5 -138.5t-131.5 -54.5q-65 0 -112 41.5 t-47 106.5z" />
<glyph unicode="&#x201d;" horiz-adv-x="946" d="M240 936l118 258q-38 19 -61 53.5t-23 77.5q0 84 53.5 138.5t131.5 54.5q65 0 112 -41.5t47 -106.5q0 -60 -30 -113l-182 -321h-166zM631 936l119 258q-38 19 -61 53.5t-23 77.5q0 84 53 138.5t131 54.5q65 0 112.5 -41.5t47.5 -106.5q0 -58 -31 -113l-182 -321h-166z " />
<glyph unicode="&#x201e;" horiz-adv-x="946" d="M4 -176l119 258q-38 19 -61 53.5t-23 77.5q0 84 53 138.5t131 54.5q65 0 112.5 -41.5t47.5 -106.5q0 -58 -31 -113l-182 -321h-166zM395 -176l119 258q-38 19 -61 53.5t-23 77.5q0 84 53 138.5t131 54.5q65 0 112.5 -41.5t47.5 -106.5q0 -58 -31 -113l-182 -321h-166z " />
<glyph unicode="&#x2022;" horiz-adv-x="780" d="M164 584q0 119 75.5 196.5t186.5 77.5q96 0 163.5 -59.5t67.5 -153.5q0 -119 -75.5 -196.5t-186.5 -77.5q-96 0 -163.5 59.5t-67.5 153.5z" />
<glyph unicode="&#x2026;" horiz-adv-x="1701" d="M39 141q0 88 55.5 145.5t134.5 57.5q69 0 118.5 -43.5t49.5 -110.5q0 -88 -55.5 -145t-134.5 -57q-69 0 -118.5 43t-49.5 110zM598 141q0 88 55.5 145.5t134.5 57.5q69 0 118.5 -43.5t49.5 -110.5q0 -88 -55.5 -145t-134.5 -57q-69 0 -118.5 43t-49.5 110zM1157 141 q0 88 56 145.5t135 57.5q69 0 118.5 -43.5t49.5 -110.5q0 -88 -55.5 -145t-135.5 -57q-69 0 -118.5 43t-49.5 110z" />
<glyph unicode="&#x202f;" horiz-adv-x="381" />
<glyph unicode="&#x2039;" horiz-adv-x="794" d="M117 555l350 379h291l-361 -387l197 -387h-279z" />
<glyph unicode="&#x203a;" horiz-adv-x="794" d="M51 162l361 387l-197 387h279l198 -395l-350 -379h-291z" />
<glyph unicode="&#x205f;" horiz-adv-x="477" />
<glyph unicode="&#x20ac;" horiz-adv-x="1306" d="M59 483l43 207h162l21 101h-162l45 208h162l20 99q40 187 185 303.5t342 116.5q198 0 329 -117.5t131 -306.5h-290q-6 66 -59.5 105.5t-141.5 39.5q-84 0 -141.5 -48.5t-73.5 -121.5l-15 -70h469l-149 -208h-365l-20 -101h313l-149 -207h-209v-2q-6 -34 -6 -57 q0 -74 53 -121t149 -47q76 0 129.5 39.5t75.5 105.5h289q-34 -187 -179.5 -305.5t-342.5 -118.5q-200 0 -330.5 117t-130.5 301q0 41 6 88h-160z" />
<glyph unicode="&#x2122;" horiz-adv-x="1335" d="M188 1337v158h500v-158h-168v-432h-164v432h-168zM778 907v588h162l139 -285l135 285h162v-588h-162v281l-135 -291l-141 287v-277h-160z" />
<glyph unicode="&#x25fc;" horiz-adv-x="1034" d="M0 0v1034h1034v-1034h-1034z" />
</font>
</defs>
</svg>
