<?xml version="1.0" standalone="no"?>
<!DOCTYPE svg PUBLIC "-//W3C//DTD SVG 1.1//EN" "http://www.w3.org/Graphics/SVG/1.1/DTD/svg11.dtd" >
<svg xmlns="http://www.w3.org/2000/svg" xmlns:xlink="http://www.w3.org/1999/xlink" version="1.1">
<metadata></metadata>
<defs>
<font id="uniformextracondensed_5" horiz-adv-x="839" >
<font-face units-per-em="2048" ascent="1661" descent="-387" />
<missing-glyph horiz-adv-x="454" />
<glyph unicode="&#x2e;&#x2e;&#x2e;" horiz-adv-x="1617" d="M72 153.5q0 71.5 51 123t122.5 51.5t123 -51.5t51.5 -123t-51.5 -122.5t-123 -51t-122.5 51t-51 122.5zM635 153.5q0 71.5 51 123t123 51.5t123 -51.5t51 -123t-51 -122.5t-123 -51t-123 51t-51 122.5zM1198 153.5q0 71.5 51 123t123 51.5t123 -51.5t51 -123t-51 -122.5 t-123 -51t-123 51t-51 122.5z" />
<glyph horiz-adv-x="0" />
<glyph unicode="&#xd;" horiz-adv-x="681" />
<glyph unicode=" "  horiz-adv-x="454" />
<glyph unicode="&#x09;" horiz-adv-x="454" />
<glyph unicode="&#xa0;" horiz-adv-x="454" />
<glyph unicode="!" horiz-adv-x="491" d="M72 153.5q0 71.5 51 123t122.5 51.5t123 -51.5t51.5 -123t-51.5 -122.5t-123 -51t-122.5 51t-51 122.5zM82 1434h328l-62 -963h-205z" />
<glyph unicode="&#x22;" horiz-adv-x="778" d="M82 840v594h246v-594h-246zM451 840v594h245v-594h-245z" />
<glyph unicode="#" d="M41 307v174h121l22 267h-112v174h127l26 307h187l-27 -307h119l26 307h187l-27 -307h109v-174h-123l-23 -267h115v-174h-129l-25 -307h-186l25 307h-119l-25 -307h-186l24 307h-106zM348 481h119l22 267h-118z" />
<glyph unicode="$" horiz-adv-x="808" d="M51 324v137h281v-121q0 -88 67 -88q31 0 49.5 21.5t18.5 58.5q0 137 -176 311q-229 227 -230 459q0 131 71 218t185 114v163h172v-159q117 -20 188 -103.5t71 -214.5v-116h-281v100q0 78 -57.5 78t-57.5 -70q0 -115 180 -295q225 -227 226 -475q0 -135 -74 -225 t-195 -117v-164h-172v160q-121 20 -193.5 105t-72.5 223z" />
<glyph unicode="%" horiz-adv-x="1146" d="M41 979q0 117 80 193.5t196.5 76.5t194.5 -74.5t78 -191.5t-80 -193.5t-196.5 -76.5t-194.5 74.5t-78 191.5zM102 0l758 1229h184l-757 -1229h-185zM240 981q0 -35 21.5 -57.5t54 -22.5t54 22.5t21.5 57.5t-21.5 57.5t-54 22.5t-54 -22.5t-21.5 -57.5zM557 245.5 q0 116.5 80 193.5t196.5 77t194.5 -74.5t78 -191.5t-80 -193.5t-196.5 -76.5t-194.5 74.5t-78 191zM756 248q0 -35 21.5 -57.5t54 -22.5t54 22.5t21.5 57.5t-21.5 57.5t-54 22.5t-54 -22.5t-21.5 -57.5z" />
<glyph unicode="&#x26;" horiz-adv-x="1054" d="M41 334q0 113 51 219t160 235q-66 104 -92.5 177t-26.5 165q0 145 94.5 234.5t229.5 89.5t225 -85t90 -230q0 -168 -201 -381l113 -178l115 239h256l-228 -463l228 -356h-297l-74 113q-109 -133 -285 -133q-158 0 -258 97t-100 257zM328 379q-1 -133 112 -133 q66 0 115 71l-158 246q-70 -102 -69 -184zM399 1137q0 -94 43 -179q84 96 84 178.5t-63.5 82.5t-63.5 -82z" />
<glyph unicode="'" horiz-adv-x="409" d="M82 840v594h246v-594h-246z" />
<glyph unicode="(" horiz-adv-x="614" d="M61 711q0 166 34 323.5t82 262t95 185.5t80 120l35 36l207 -153q-10 -12 -26.5 -36t-58.5 -100.5t-75 -159.5t-59.5 -212t-26.5 -260t25.5 -258t61.5 -215t72 -158t62 -102l25 -35l-207 -154q-12 12 -34.5 38t-79 113t-99.5 185t-78 256t-35 324z" />
<glyph unicode=")" horiz-adv-x="614" d="M20 -51q10 12 26.5 35.5t58.5 100.5t75 160t59.5 212t26.5 260t-25.5 258t-61.5 215t-71.5 157.5t-62.5 102.5l-25 35l207 153q12 -12 35 -37.5t79 -112.5t99 -185.5t78 -256t35 -323.5t-34 -323.5t-82 -262t-95 -185.5t-80 -120l-35 -37z" />
<glyph unicode="*" horiz-adv-x="786" d="M41 1102l65 201l203 -91l-22 222h213l-23 -222l203 91l65 -201l-217 -49l148 -164l-172 -125l-111 192l-110 -192l-172 125l145 164z" />
<glyph unicode="+" d="M61 614v226h246v286h225v-286h246v-226h-246v-286h-225v286h-246z" />
<glyph unicode="," horiz-adv-x="481" d="M72 -266l20 594h318l-113 -594h-225z" />
<glyph unicode="-" horiz-adv-x="614" d="M61 594v266h492v-266h-492z" />
<glyph unicode="." horiz-adv-x="491" d="M72 153.5q0 71.5 51 123t122.5 51.5t123 -51.5t51.5 -123t-51.5 -122.5t-123 -51t-122.5 51t-51 122.5z" />
<glyph unicode="/" horiz-adv-x="819" d="M0 -164l573 1761h246l-573 -1761h-246z" />
<glyph unicode="0" d="M61 324v778q0 154 107.5 253t255 99t251 -95t103.5 -249v-778q0 -154 -107.5 -253t-255 -99t-251 95t-103.5 249zM352 344q0 -82 67.5 -82t67.5 82v746q0 82 -67.5 82t-67.5 -82v-746z" />
<glyph unicode="1" horiz-adv-x="737" d="M10 1145l375 289h250v-1434h-291v1087l-190 -137z" />
<glyph unicode="2" horiz-adv-x="798" d="M51 0v211l359 680q47 86 47 188q0 92 -64 92q-61 0 -61 -92v-137h-281v160q0 152 104.5 252t247.5 100q145 0 245 -96t100 -250t-103 -340l-270 -496h373v-272h-697z" />
<glyph unicode="3" horiz-adv-x="808" d="M51 324v157h281v-147q0 -82 67.5 -82t67.5 82v198q0 82 -68 82h-92v236h92q51 0 52 65v201q0 66 -51.5 66t-51.5 -66v-133h-280v135q0 145 99 240.5t236 95.5q141 0 239.5 -91t98.5 -237v-159q0 -135 -90 -230q106 -96 107 -252v-153q0 -154 -105.5 -253t-257.5 -99 q-145 0 -244.5 95t-99.5 249z" />
<glyph unicode="4" d="M41 307v246l369 881h276v-891h113v-236h-113v-307h-262v307h-383zM268 543h156v418z" />
<glyph unicode="5" horiz-adv-x="817" d="M61 307v164h281v-133q0 -35 17.5 -55.5t44 -20.5t44 20.5t17.5 55.5v317q0 35 -17.5 55.5t-44 20.5t-44 -20.5t-17.5 -55.5v-30h-260v809h643v-273h-383v-235q61 57 147 57q113 0 190 -77t77 -199v-381q0 -147 -106.5 -246.5t-250.5 -99.5q-137 0 -237.5 92t-100.5 235z " />
<glyph unicode="6" d="M55 328v186q0 242 78 428l191 492h290l-206 -512q37 20 77 20q143 0 221 -88t78 -240v-278q0 -154 -109.5 -255t-259 -101t-255 97t-105.5 251zM346 344q0 -37 20.5 -59.5t53.5 -22.5t53.5 22.5t20.5 59.5v264q0 37 -20.5 59.5t-53.5 22.5t-53.5 -22.5t-20.5 -59.5v-264z " />
<glyph unicode="7" horiz-adv-x="737" d="M41 1151v283h655v-222l-317 -1212h-297l311 1151h-352z" />
<glyph unicode="8" d="M51 334v155q0 166 117 269q-100 93 -100 243v107q0 152 105.5 249t250.5 97t246.5 -93t101.5 -245v-106q0 -143 -102 -246q119 -102 118 -266v-156q0 -158 -108.5 -260t-264 -102t-260 98t-104.5 256zM342 334q0 -92 78 -92t78 92v221q0 92 -78 92t-78 -92v-221zM358 944 q0 -76 61.5 -76t61.5 76v172q0 76 -61.5 76t-61.5 -76v-172z" />
<glyph unicode="9" d="M55 819v279q0 154 109.5 255t259 101t255 -97t105.5 -251v-186q0 -242 -77 -428l-191 -492h-291l207 510q-35 -18 -78 -18q-143 0 -221 88t-78 239zM346 825q0 -37 20.5 -59.5t53.5 -22.5t53.5 22.5t20.5 59.5v265q0 37 -20.5 59t-53.5 22t-53.5 -22.5t-20.5 -58.5v-265z " />
<glyph unicode=":" horiz-adv-x="491" d="M72 153.5q0 71.5 51 123t122.5 51.5t123 -51.5t51.5 -123t-51.5 -122.5t-123 -51t-122.5 51t-51 122.5zM72 911.5q0 71.5 51 122.5t122.5 51t123 -51t51.5 -122.5t-51.5 -123t-123 -51.5t-122.5 51.5t-51 123z" />
<glyph unicode=";" horiz-adv-x="491" d="M72 -266l20 594h318l-113 -594h-225zM72 911.5q0 71.5 51 122.5t122.5 51t123 -51t51.5 -122.5t-51.5 -123t-123 -51.5t-122.5 51.5t-51 123z" />
<glyph unicode="&#x3c;" d="M61 594v266l717 379v-283l-477 -225l477 -223v-293z" />
<glyph unicode="=" d="M61 389v236h717v-236h-717zM61 788v236h717v-236h-717z" />
<glyph unicode="&#x3e;" d="M61 215v283l476 223l-476 225v293l717 -379v-266z" />
<glyph unicode="?" horiz-adv-x="788" d="M51 963v118q0 168 103.5 270.5t249 102.5t245 -96t99.5 -250q0 -96 -34 -185t-75 -144.5t-75 -127t-34 -139.5v-41h-262v61q0 94 47 187.5t94.5 183.5t47.5 176q0 92 -64 92q-61 0 -61 -92v-116h-281zM225 153.5q0 71.5 51.5 123t123 51.5t122.5 -51.5t51 -123 t-51 -122.5t-122.5 -51t-123 51t-51.5 122.5z" />
<glyph unicode="@" horiz-adv-x="1835" d="M41 565q0 375 252 632t629 257q379 0 625.5 -252t246.5 -629q0 -281 -147.5 -461t-374.5 -180q-158 0 -245 81t-95 216q-59 -76 -168 -75q-98 0 -151.5 63.5t-39.5 169.5l58 399q14 106 77.5 165t157.5 59q113 0 158 -86l18 69h197l14 -24l-90 -641q-14 -92 21 -142.5 t106 -50.5q117 0 204 118t87 298q0 319 -182 508.5t-481 189.5q-285 0 -474.5 -196.5t-189.5 -483.5q0 -283 188.5 -476t475.5 -193l104 8l33 -187q-33 -16 -142 -16q-381 0 -626.5 246t-245.5 614zM825 416q-6 -57 45 -58q48 1 58 54l47 336q6 57 -45 57q-47 0 -58 -53z " />
<glyph unicode="A" horiz-adv-x="849" d="M0 0l276 1434h297l277 -1434h-318l-30 236h-174l-31 -236h-297zM360 481h109l-55 414z" />
<glyph unicode="B" horiz-adv-x="880" d="M82 0v1434h383q162 0 258 -89.5t96 -254.5v-52q0 -195 -135 -286q156 -86 156 -297v-103q0 -166 -100.5 -259t-262.5 -93h-395zM389 256h51q92 0 92 102v154q0 102 -92 102h-51v-358zM389 850h31q92 0 92 102v123q0 102 -92 103h-31v-328z" />
<glyph unicode="C" horiz-adv-x="849" d="M61 334v758q0 162 109 262t264 100q152 0 253 -93t101 -251v-219h-296v205q0 72 -61 72h-1q-62 0 -61 -72v-758q0 -72 61.5 -72t61.5 72v225h296v-231q0 -158 -105 -255t-257 -97q-156 0 -260.5 96t-104.5 258z" />
<glyph unicode="D" horiz-adv-x="890" d="M82 0v1434h373q176 0 275 -92.5t99 -272.5v-696q0 -180 -103 -276.5t-280 -96.5h-364zM389 287h41q92 0 92 102v655q0 102 -92 103h-41v-860z" />
<glyph unicode="E" horiz-adv-x="727" d="M82 0v1434h594v-308h-287v-252h225v-286h-225v-281h297v-307h-604z" />
<glyph unicode="F" horiz-adv-x="686" d="M82 0v1434h584v-308h-277v-313h215v-297h-215v-516h-307z" />
<glyph unicode="G" horiz-adv-x="880" d="M61 344v737q0 166 111 269.5t272.5 103.5t268 -99.5t106.5 -264.5v-179h-307v174q0 82 -71.5 82t-71.5 -82v-743q0 -86 75 -86q35 0 56.5 23.5t21.5 62.5v211h-82v235h379v-436q0 -166 -110.5 -269t-272.5 -103t-268.5 99t-106.5 265z" />
<glyph unicode="H" horiz-adv-x="911" d="M82 0v1434h307v-543h133v543h307v-1434h-307v584h-133v-584h-307z" />
<glyph unicode="I" horiz-adv-x="497" d="M92 0v1434h314v-1434h-314z" />
<glyph unicode="J" horiz-adv-x="534" d="M20 -12v291q16 -2 37 -3q49 0 71 25t22 78v1055h313v-1123q0 -162 -93.5 -246.5t-236.5 -84.5z" />
<glyph unicode="K" horiz-adv-x="911" d="M82 0v1434h307v-619l164 619h338l-225 -676l245 -758h-338l-184 664v-664h-307z" />
<glyph unicode="L" horiz-adv-x="665" d="M82 0v1434h307v-1127h256v-307h-563z" />
<glyph unicode="M" horiz-adv-x="1146" d="M82 0v1434h307l195 -734l194 734h287v-1434h-281v752l-143 -547h-135l-144 547v-752h-280z" />
<glyph unicode="N" horiz-adv-x="931" d="M82 0v1434h287l215 -701v701h266v-1434h-266l-236 766v-766h-266z" />
<glyph unicode="O" horiz-adv-x="880" d="M61 344v737q0 166 111 269.5t272.5 103.5t268 -99.5t106.5 -264.5v-738q0 -166 -110.5 -269t-272.5 -103t-268.5 99t-106.5 265zM369 348q0 -82 71.5 -82t71.5 82v737q0 82 -71.5 82t-71.5 -82v-737z" />
<glyph unicode="P" horiz-adv-x="870" d="M82 0v1434h352q188 0 291.5 -95.5t103.5 -289.5v-175q0 -195 -107.5 -294t-295.5 -99h-37v-481h-307zM389 758h41q92 0 92 102v184q0 102 -92 103h-41v-389z" />
<glyph unicode="Q" horiz-adv-x="880" d="M61 344v737q0 166 111 269.5t272.5 103.5t268 -99.5t106.5 -264.5v-738q0 -174 -123 -280l99 -318h-283l-59 226h-17q-162 0 -268.5 99t-106.5 265zM369 348q0 -82 71.5 -82t71.5 82v737q0 82 -71.5 82t-71.5 -82v-737z" />
<glyph unicode="R" horiz-adv-x="890" d="M82 0v1434h352q188 0 291.5 -95.5t103.5 -289.5v-164q0 -180 -114 -262l176 -623h-318l-127 522h-57v-522h-307zM389 778h41q92 0 92 103v163q0 102 -92 103h-41v-369z" />
<glyph unicode="S" horiz-adv-x="829" d="M41 334v127h297v-113q0 -92 72 -92q33 0 52 23.5t19 60.5q0 61 -36.5 122.5t-157.5 178.5q-236 229 -236 451q0 162 108.5 262t264.5 100q152 0 253 -93t101 -251v-106h-297v92q0 82 -61.5 82t-61.5 -74q0 -51 38 -110.5t157 -174.5q123 -119 179 -229.5t56 -237.5 q0 -166 -110.5 -269t-271.5 -103q-156 0 -260.5 96t-104.5 258z" />
<glyph unicode="T" horiz-adv-x="757" d="M20 1126v308h717v-308h-205v-1126h-307v1126h-205z" />
<glyph unicode="U" horiz-adv-x="880" d="M72 334v1100h309v-1096q0 -72 61.5 -72t61.5 72v1096h305v-1092q0 -162 -108.5 -262t-264 -100t-260 96t-104.5 258z" />
<glyph unicode="V" horiz-adv-x="829" d="M0 1434h328l96 -783l98 783h307l-266 -1434h-297z" />
<glyph unicode="W" horiz-adv-x="1187" d="M0 1434h328l67 -768l90 768h238l90 -768l68 768h307l-236 -1434h-272l-86 662l-86 -662h-272z" />
<glyph unicode="X" horiz-adv-x="890" d="M0 0l279 737l-259 697h338l91 -349l94 349h327l-260 -684l281 -750h-338l-113 403l-112 -403h-328z" />
<glyph unicode="Y" horiz-adv-x="808" d="M0 1434h328l86 -512l88 512h307l-252 -922v-512h-307v512z" />
<glyph unicode="Z" horiz-adv-x="757" d="M41 0v246l348 901h-317v287h645v-246l-348 -901h348v-287h-676z" />
<glyph unicode="[" horiz-adv-x="665" d="M102 -164v1761h523v-256h-236v-1249h236v-256h-523z" />
<glyph unicode="\" horiz-adv-x="819" d="M0 1597h246l573 -1761h-246z" />
<glyph unicode="]" horiz-adv-x="665" d="M41 92h235v1249h-235v256h522v-1761h-522v256z" />
<glyph unicode="^" horiz-adv-x="870" d="M41 737l266 697h256l266 -697h-290l-101 379l-100 -379h-297z" />
<glyph unicode="_" horiz-adv-x="819" d="M0 -102h819v-205h-819v205z" />
<glyph unicode="`" horiz-adv-x="757" d="M184 1516h297l82 -349h-215z" />
<glyph unicode="a" horiz-adv-x="819" d="M41 283v41q0 143 76 227t194 84q100 0 160 -64v207q1 62 -55 62h-1q-55 0 -55 -62v-71h-276v47q0 143 99.5 237t236.5 94q141 0 239.5 -90t98.5 -233v-762h-246l-10 94q-62 -114 -197 -114h-2q-119 0 -190.5 79.5t-71.5 223.5zM328 287q0 -82 71.5 -82t71.5 82v61 q0 82 -71.5 82t-71.5 -82v-61z" />
<glyph unicode="b" horiz-adv-x="827" d="M72 0v1434h286v-416q60 67 159 67h3q115 0 185.5 -76.5t70.5 -215.5v-512q0 -139 -74.5 -220t-189.5 -81q-131 0 -186 102l-9 -82h-245zM358 317q0 -33 18.5 -52t47.5 -19t47 19.5t18 51.5v431q0 33 -18 52t-47 19t-47.5 -19t-18.5 -52v-431z" />
<glyph unicode="c" horiz-adv-x="780" d="M51 305v447q0 145 102.5 239t245.5 94q139 0 234.5 -90t95.5 -235v-146h-276v142q0 63 -57.5 63t-57.5 -63v-447q0 -63 57.5 -63t57.5 63v152h276v-148q0 -145 -99.5 -239t-238.5 -94q-143 0 -241.5 90t-98.5 235z" />
<glyph unicode="d" horiz-adv-x="827" d="M51 272v512q0 139 75 220t189 81q98 0 154 -59v408h287v-1434h-246l-10 90q-58 -110 -191 -110h-2q-115 0 -185.5 76.5t-70.5 215.5zM338 317q0 -33 18.5 -52t47 -19t47 19t18.5 52v431q0 33 -18.5 52t-47 19t-47 -19.5t-18.5 -51.5v-431z" />
<glyph unicode="e" horiz-adv-x="786" d="M51 303v451q0 143 102.5 237t244 94t239.5 -90t98 -233v-281h-397v-164q0 -33 18.5 -52t47 -19t47 19.5t18.5 51.5v82h266v-88q0 -143 -102.5 -237t-243.5 -94t-239.5 90t-98.5 233zM338 666h131v112q0 33 -18.5 52.5t-47 19.5t-47 -19.5t-18.5 -52.5v-112z" />
<glyph unicode="f" horiz-adv-x="583" d="M20 829v236h103v117q0 135 76.5 203.5t210.5 68.5q35 0 70.5 -4t54.5 -8l18 -2v-246q-39 4 -68 4q-41 0 -58 -18.5t-17 -63.5v-51h143v-236h-143v-829h-287v829h-103z" />
<glyph unicode="g" horiz-adv-x="827" d="M51 395v389q0 139 74.5 220t189.5 81q129 0 185 -102l10 82h246v-1071q0 -150 -104.5 -246t-252.5 -96q-141 0 -239.5 92t-98.5 242v45h277v-62q0 -33 18.5 -52t47 -19t47 19.5t18.5 51.5v199q-59 -66 -162 -66q-115 0 -185.5 77t-70.5 216zM338 420q0 -33 18.5 -52.5 t47 -19.5t47 19.5t18.5 52.5v328q0 33 -18.5 52t-47 19t-47 -19.5t-18.5 -51.5v-328z" />
<glyph unicode="h" horiz-adv-x="829" d="M72 0v1434h286v-461q60 112 177 112h2q106 0 168.5 -72.5t62.5 -219.5v-793h-287v752q0 67 -57 67h-2h-2q-62 0 -62 -67v-752h-286z" />
<glyph unicode="i" horiz-adv-x="454" d="M53 1321q0 72 51.5 123t123 51t122.5 -51t51 -123t-51 -123t-122.5 -51t-123 51t-51.5 123zM82 0v1065h291v-1065h-291z" />
<glyph unicode="j" horiz-adv-x="454" d="M-10 -90q18 -2 37 -2q55 0 55 61v1096h291v-1131q0 -133 -76 -207.5t-195 -74.5q-33 0 -60.5 3t-39.5 5l-12 4v246zM53 1321q0 72 51.5 123t123 51t122.5 -51t51 -123t-51 -123t-122.5 -51t-123 51t-51.5 123z" />
<glyph unicode="k" horiz-adv-x="829" d="M72 0v1434h286v-811l154 442h317l-215 -481l236 -584h-328l-164 500v-500h-286z" />
<glyph unicode="l" horiz-adv-x="454" d="M82 0v1434h291v-1434h-291z" />
<glyph unicode="m" horiz-adv-x="1214" d="M72 0v1065h245l13 -109q59 129 200 129q143 0 197 -129q59 129 201 129q104 0 164.5 -72.5t60.5 -219.5v-793h-287v752q0 67 -51 67h-2q-57 0 -57 -67v-752h-287v752q0 67 -51 67h-2h-2q-56 0 -56 -67v-752h-286z" />
<glyph unicode="n" horiz-adv-x="829" d="M72 0v1065h245l13 -111q61 131 207 131q106 0 168.5 -72.5t62.5 -219.5v-793h-287v752q0 67 -57 67h-2h-2q-62 0 -62 -67v-752h-286z" />
<glyph unicode="o" horiz-adv-x="806" d="M51 313v430q0 150 104.5 246t252 96t248 -92t100.5 -241v-430q0 -150 -104.5 -246t-252 -96t-248 91.5t-100.5 241.5zM338 317q0 -33 18.5 -52t47 -19t47 19.5t18.5 51.5v431q0 33 -18.5 52t-47 19t-47 -19t-18.5 -52v-431z" />
<glyph unicode="p" horiz-adv-x="827" d="M72 -328v1393h245l11 -92q58 112 190 112h2q115 0 185.5 -76.5t70.5 -215.5v-512q0 -139 -74.5 -220t-189.5 -81q-96 0 -154 57v-365h-286zM358 317q0 -33 18.5 -52t47.5 -19t47 19.5t18 51.5v431q0 33 -18 52t-47 19t-47.5 -19t-18.5 -52v-431z" />
<glyph unicode="q" horiz-adv-x="827" d="M51 272v512q0 139 75 220t189 81q129 0 185 -102l10 82h246v-1393h-287v373q-58 -65 -159 -65h-3q-115 0 -185.5 76.5t-70.5 215.5zM338 317q0 -33 18.5 -52t47 -19t47 19t18.5 52v431q0 33 -18.5 52t-47 19t-47 -19.5t-18.5 -51.5v-431z" />
<glyph unicode="r" horiz-adv-x="587" d="M72 0v1065h245l17 -158q61 178 233 178v-337h-63q-74 0 -109 -32t-37 -104v-612h-286z" />
<glyph unicode="s" horiz-adv-x="776" d="M41 313v45h276v-51q0 -39 18.5 -60.5t47.5 -21.5t47.5 19.5t18.5 52.5q0 37 -31 66.5t-135 82.5q-115 61 -173.5 140.5t-58.5 197.5q0 127 98.5 214t237.5 87q141 0 239.5 -90t98.5 -233v-35h-276v41q0 72 -55.5 72t-55.5 -52q0 -33 30.5 -61.5t127.5 -77.5 q239 -122 239 -336q0 -143 -101.5 -238t-244.5 -95q-147 0 -247.5 92t-100.5 241z" />
<glyph unicode="t" horiz-adv-x="604" d="M20 829v236h103v246h287v-246h153v-236h-153v-501q0 -45 17 -63.5t58 -18.5l68 4v-256q-66 -14 -143 -14q-133 0 -210 68.5t-77 203.5v577h-103z" />
<glyph unicode="u" horiz-adv-x="829" d="M61 272v793h287v-752q0 -67 58 -67h2h2q61 0 61 67v752h287v-1065h-246l-12 111q-61 -131 -207 -131q-106 0 -169 72.5t-63 219.5z" />
<glyph unicode="v" horiz-adv-x="737" d="M0 1065h297l82 -608l82 608h276l-235 -1065h-266z" />
<glyph unicode="w" horiz-adv-x="1054" d="M0 1065h297l57 -545l80 545h207l80 -545l57 545h277l-215 -1065h-244l-70 524l-67 -524h-244z" />
<glyph unicode="x" horiz-adv-x="829" d="M0 0l266 549l-246 516h299l99 -258l100 258h291l-248 -508l268 -557h-299l-118 299l-121 -299h-291z" />
<glyph unicode="y" horiz-adv-x="737" d="M0 1065h297l82 -655l82 655h276l-241 -1090q-72 -323 -320 -323h-2q-43 0 -75.5 4t-45.5 8l-12 6v226q29 -8 72 -9q105 0 123 113z" />
<glyph unicode="z" horiz-adv-x="696" d="M41 0v205l307 614h-276v246h583v-205l-307 -614h307v-246h-614z" />
<glyph unicode="{" horiz-adv-x="727" d="M41 590v254h82q82 0 82 82v303q0 193 88 280.5t280 87.5h113v-245h-92q-53 0 -77.5 -24.5t-24.5 -78.5v-286q0 -240 -197 -246q197 -6 197 -246v-287q0 -53 24.5 -77.5t77.5 -24.5h92v-246h-113q-193 0 -280.5 88t-87.5 281v303q0 82 -82 82h-82z" />
<glyph unicode="|" horiz-adv-x="522" d="M143 -205v1843h236v-1843h-236z" />
<glyph unicode="}" horiz-adv-x="727" d="M41 82h92q53 0 78 24.5t25 77.5v287q0 240 194 246q-194 6 -194 246v286q0 53 -25 78t-78 25h-92v245h113q193 0 280.5 -88t87.5 -280v-303q0 -82 82 -82h82v-254h-82q-82 0 -82 -82v-303q0 -193 -88 -281t-280 -88h-113v246z" />
<glyph unicode="~" d="M41 518q0 14 2 35.5t15.5 79t36 101.5t72.5 80t118 36q78 0 152.5 -55.5t111.5 -55.5q25 0 38 23.5t15 48.5l2 23h195q0 -14 -2 -36t-15.5 -79t-37 -101.5t-72.5 -80t-117 -35.5q-80 0 -154.5 55t-109.5 55q-25 0 -38 -23.5t-15 -47.5l-2 -23h-195z" />
<glyph unicode="&#xa1;" horiz-adv-x="491" d="M72 1280q0 72 51 123t122.5 51t123 -51t51.5 -123t-51.5 -123t-123 -51t-122.5 51t-51 123zM82 0l61 963h205l62 -963h-328z" />
<glyph unicode="&#xa2;" horiz-adv-x="800" d="M61 674v446q0 117 75 203t190 111v163h172v-163q106 -27 173.5 -109t67.5 -197v-145h-276v141q0 63 -57.5 63.5t-57.5 -63.5v-446q0 -63 57.5 -63.5t57.5 63.5v151h276v-147q0 -113 -67.5 -197t-173.5 -114v-166h-172v160q-117 23 -191 105.5t-74 203.5z" />
<glyph unicode="&#xa3;" horiz-adv-x="878" d="M20 602v168h123v338q0 152 105.5 249t251.5 97q141 0 239.5 -91t98.5 -237v-163h-281v143q0 76 -61.5 76t-61.5 -76v-336h232v-168h-232v-330h385v-272h-676v602h-123z" />
<glyph unicode="&#xa4;" horiz-adv-x="1048" d="M41 354l141 135q-71 97 -71 226q0 125 73 227l-143 137l121 121l147 -143q102 59 217 59q117 0 213 -57l148 141l121 -121l-144 -135q74 -102 74 -225q0 -125 -74 -227l144 -138l-121 -121l-150 142q-96 -57 -215 -57.5t-215 57.5l-145 -142zM371 716.5 q0 -65.5 44 -109.5t109.5 -44t109.5 44t44 109.5t-44 109.5t-109.5 44t-109.5 -44t-44 -109.5z" />
<glyph unicode="&#xa5;" horiz-adv-x="849" d="M20 1434h324l88 -488l94 488h303l-192 -623h151v-147h-196l-14 -50v-39h210v-147h-210v-428h-308v428h-209v147h209v39l-16 50h-193v147h148z" />
<glyph unicode="&#xa6;" horiz-adv-x="522" d="M143 -205v697h236v-697h-236zM143 942v696h236v-696h-236z" />
<glyph unicode="&#xa7;" horiz-adv-x="1024" d="M61 590q0 217 193 289q-90 111 -90 254q0 147 104.5 234t257.5 87q150 0 247 -80t97 -223v-76h-286v72q0 31 -16.5 51.5t-45.5 20.5q-61 0 -61 -64q0 -92 172 -211q182 -127 256 -219t74 -209q0 -215 -195 -291q92 -111 92 -252q0 -147 -104.5 -234t-257.5 -87 q-150 0 -247 80t-97 223v76h286v-72q0 -31 16.5 -51.5t45.5 -20.5q61 0 61 64q0 92 -172 211q-182 127 -256 219t-74 209zM358 627q0 -45 42 -94.5t175 -143.5q91 14 91 90q0 45 -42 92t-175 144q-90 -10 -91 -88z" />
<glyph unicode="&#xa8;" horiz-adv-x="1044" d="M193 1325.5q0 65.5 41.5 107.5t107.5 42t108 -42t42 -107.5t-42 -107.5t-108 -42t-107.5 42t-41.5 107.5zM553 1325.5q0 65.5 42 107.5t107.5 42t107.5 -42t42 -107.5t-42 -107.5t-107.5 -42t-107.5 42t-42 107.5z" />
<glyph unicode="&#xa9;" horiz-adv-x="1609" d="M61 712.5q0 311.5 216.5 526.5t531.5 215t527 -211t212 -522t-216 -526t-531.5 -215t-527.5 210.5t-212 522zM238 717q0 -246 162.5 -410t404.5 -164t404.5 164t162.5 410t-162.5 409.5t-404.5 163.5t-404.5 -163.5t-162.5 -409.5zM414 713q0 172 116.5 290.5 t292.5 118.5q98 0 177 -34.5t110 -67.5l29 -35l-158 -141q-4 8 -14.5 20.5t-49 31.5t-88.5 19q-82 0 -136 -57t-54 -141t54.5 -141.5t135.5 -57.5q51 0 92.5 21.5t57.5 42.5l14 20l152 -139q-4 -6 -12.5 -16.5t-38 -37t-64.5 -46t-92 -36t-121 -16.5q-176 0 -289.5 115 t-113.5 287z" />
<glyph unicode="&#xaa;" horiz-adv-x="569" d="M61 969v8q0 90 47.5 142t122.5 52q59 0 93 -36v127q0 33 -29 32.5t-29 -32.5v-48h-178v21q0 90 61.5 148.5t147.5 58.5q90 0 150.5 -55.5t60.5 -147.5v-448h-156l-8 59q-37 -72 -117 -72q-76 0 -121 49.5t-45 141.5zM82 565v131h426v-131h-426zM246 958q0 -45 39 -45 t39 45v46q0 45 -39 45t-39 -45v-46z" />
<glyph unicode="&#xab;" horiz-adv-x="1228" d="M61 676v82l390 368l153 -153l-225 -252l225 -250l-153 -164zM584 676v82l389 368l153 -153l-225 -252l225 -250l-153 -164z" />
<glyph unicode="&#xac;" d="M61 676v225h717v-481h-246v256h-471z" />
<glyph unicode="&#xad;" horiz-adv-x="614" d="M61 594v266h492v-266h-492z" />
<glyph unicode="&#xae;" horiz-adv-x="835" d="M61 1097.5q0 149.5 103.5 253t255.5 103.5q150 0 252 -101.5t102 -251t-103.5 -253t-254.5 -103.5q-150 0 -252.5 101.5t-102.5 251zM156 1099.5q0 -112.5 76.5 -189t185 -76.5t185.5 76.5t77 189t-77 189.5t-185.5 77t-185 -77t-76.5 -189.5zM283 928v344h159 q59 0 94 -32t35 -85q0 -76 -67 -104l82 -123h-107l-69 110h-33v-110h-94zM377 1110h53q49 0 49 41q0 43 -49 43h-53v-84z" />
<glyph unicode="&#xaf;" horiz-adv-x="942" d="M184 1257v197h574v-197h-574z" />
<glyph unicode="&#xb0;" horiz-adv-x="790" d="M61 1124.5q0 137.5 98.5 233.5t238 96t235.5 -94t96 -231.5t-98.5 -233.5t-237.5 -96t-235.5 94t-96.5 231.5zM272 1126.5q0 -53.5 36 -91.5t87 -38t87 38t36 91.5t-36 91t-87 37.5t-87 -37.5t-36 -91z" />
<glyph unicode="&#xb1;" d="M61 184v226h717v-226h-717zM61 768v225h246v256h228v-256h243v-225h-243v-256h-228v256h-246z" />
<glyph unicode="&#xb2;" horiz-adv-x="516" d="M41 573v132l219 403q29 51 29 113q0 51 -35 51q-33 0 -33 -51v-82h-180v88q0 96 64.5 157.5t154.5 61.5q92 0 153.5 -59.5t61.5 -155.5q0 -84 -61 -197l-166 -293h227v-168h-434z" />
<glyph unicode="&#xb3;" horiz-adv-x="522" d="M41 776v86h180v-88q0 -45 37 -45t37 45v119q0 49 -37 49h-55v141h55q27 0 27 39v121q0 35 -27 35t-27 -35v-80h-180v74q0 92 61.5 150.5t147.5 58.5q90 0 150.5 -56.5t60.5 -148.5v-80q0 -88 -57 -145q68 -63 67 -160v-76q0 -96 -65.5 -157.5t-159.5 -61.5 q-92 0 -153.5 59.5t-61.5 155.5z" />
<glyph unicode="&#xb4;" horiz-adv-x="757" d="M184 1167l82 349h297l-164 -349h-215z" />
<glyph unicode="&#xb5;" d="M72 -328v1393h286v-752q0 -68 60 -67q63 -1 63 67v752h287v-1065h-246l-10 94q-53 -115 -137 -114q-4 0 -9.5 1t-7.5 1v-310h-286z" />
<glyph unicode="&#xb6;" horiz-adv-x="1269" d="M41 1047q0 164 103.5 275.5t277.5 111.5h704v-1434h-286v1178h-123v-1178h-287v666h-12q-172 0 -274.5 112.5t-102.5 268.5z" />
<glyph unicode="&#xb7;" horiz-adv-x="491" d="M72 716.5q0 71.5 51 123t122.5 51.5t123 -51.5t51.5 -123t-51.5 -122.5t-123 -51t-122.5 51t-51 122.5z" />
<glyph unicode="&#xb8;" horiz-adv-x="727" d="M184 -205q16 -6 60 -6q55 0 89 32t34 83q0 29 -11.5 53.5t-21.5 34.5l-10 8l116 102q6 -2 15.5 -8t34 -26.5t44 -45t35 -66.5t15.5 -89q0 -119 -83 -192.5t-214 -73.5q-27 0 -52.5 3t-37.5 7l-13 2v182z" />
<glyph unicode="&#xb9;" horiz-adv-x="454" d="M0 1260l225 174h158v-861h-186v639l-105 -75z" />
<glyph unicode="&#xba;" horiz-adv-x="561" d="M61 987v242q0 94 64.5 153.5t157 59.5t155 -57.5t62.5 -151.5v-242q0 -94 -64.5 -153.5t-157 -59.5t-155 57.5t-62.5 151.5zM82 565v131h397v-131h-397zM246 977q0 -39 34.5 -39t34.5 39v266q0 39 -34.5 39t-34.5 -39v-266z" />
<glyph unicode="&#xbb;" horiz-adv-x="1228" d="M102 461l224 250l-224 252l154 163l389 -368v-82l-389 -369zM625 461l223 250l-223 252l153 163l389 -368v-82l-389 -369z" />
<glyph unicode="&#xbc;" horiz-adv-x="1236" d="M10 1260l226 174h157v-861h-186v639l-105 -75zM154 0l819 1434h184l-819 -1434h-184zM715 180v152l229 528h174v-534h68v-146h-68v-180h-166v180h-237zM860 326h92v237z" />
<glyph unicode="&#xbd;" horiz-adv-x="1333" d="M10 1260l226 174h157v-861h-186v639l-105 -75zM154 0l819 1434h184l-819 -1434h-184zM838 0v131l219 404q29 49 28 112q0 51 -34 51q-33 0 -33 -51v-82h-180v88q0 96 64.5 157.5t154.5 61.5q92 0 153.5 -59t61.5 -156q0 -84 -62 -196l-166 -293h228v-168h-434z" />
<glyph unicode="&#xbe;" horiz-adv-x="1247" d="M41 776v86h180v-88q0 -45 37 -45t37 45v119q0 49 -37 49h-55v141h55q27 0 27 39v121q0 35 -27 35t-27 -35v-80h-180v74q0 92 61.5 150.5t147.5 58.5q90 0 150.5 -56.5t60.5 -148.5v-80q0 -88 -57 -145q68 -63 67 -160v-76q0 -96 -65.5 -157.5t-159.5 -61.5 q-92 0 -153.5 59.5t-61.5 155.5zM164 0l819 1434h184l-819 -1434h-184zM725 180v152l229 528h174v-534h68v-146h-68v-180h-165v180h-238zM870 326h93v237z" />
<glyph unicode="&#xbf;" horiz-adv-x="788" d="M41 326q0 96 34 185t74.5 144.5t74.5 127t34 139.5v41h262v-62q0 -94 -47 -187t-94 -183.5t-47 -176.5q0 -92 63 -92q61 0 62 92v117h280v-119q0 -168 -103.5 -270t-248.5 -102t-244.5 96t-99.5 250zM215 1280q0 72 51 123t123 51t123 -51t51 -123t-51 -123t-123 -51 t-123 51t-51 123z" />
<glyph unicode="&#xc0;" horiz-adv-x="849" d="M0 0l276 1434h297l277 -1434h-318l-30 236h-174l-31 -236h-297zM154 1884h297l81 -348h-215zM360 481h109l-55 414z" />
<glyph unicode="&#xc1;" horiz-adv-x="849" d="M0 0l276 1434h297l277 -1434h-318l-30 236h-174l-31 -236h-297zM317 1536l82 348h297l-164 -348h-215zM360 481h109l-55 414z" />
<glyph unicode="&#xc2;" horiz-adv-x="849" d="M0 0l276 1434h297l277 -1434h-318l-30 236h-174l-31 -236h-297zM119 1536l205 348h204l205 -348h-217l-96 147l-96 -147h-205zM360 481h109l-55 414z" />
<glyph unicode="&#xc3;" horiz-adv-x="849" d="M0 0l276 1434h297l277 -1434h-318l-30 236h-174l-31 -236h-297zM131 1544q0 10 1 25.5t11.5 56.5t28.5 73t57 57.5t90 25.5q61 0 120 -42t85 -42q18 0 29.5 17.5t13.5 35.5l2 18h150q0 -10 -1 -25t-11.5 -56t-29 -73t-57 -57.5t-90.5 -25.5q-61 0 -119.5 42t-84.5 42 q-18 0 -29.5 -17.5t-13.5 -35.5l-2 -19h-150zM360 481h109l-55 414z" />
<glyph unicode="&#xc4;" horiz-adv-x="849" d="M0 0l276 1434h297l277 -1434h-318l-30 236h-174l-31 -236h-297zM96 1673.5q0 65.5 42 107.5t107.5 42t107.5 -42t42 -107.5t-42 -107.5t-107.5 -42t-107.5 42t-42 107.5zM360 481h109l-55 414zM457 1673.5q0 65.5 42 107.5t107.5 42t107.5 -42t42 -107.5t-42 -107.5 t-107.5 -42t-107.5 42t-42 107.5z" />
<glyph unicode="&#xc5;" horiz-adv-x="849" d="M0 0l276 1434h297l277 -1434h-318l-30 236h-174l-31 -236h-297zM231 1700q0 80 55.5 132t139.5 52t139.5 -52t55.5 -132t-55.5 -132t-139.5 -52t-139.5 52t-55.5 132zM356 1700q0 -29 19.5 -48.5t50.5 -19.5t50.5 19.5t19.5 48.5t-19.5 48t-50.5 19t-50.5 -19t-19.5 -48z M360 481h109l-55 414z" />
<glyph unicode="&#xc6;" horiz-adv-x="1167" d="M-10 0l338 1434h788v-308h-287v-252h226v-286h-226v-281h297v-307h-604v236h-188l-47 -236h-297zM383 481h139v697z" />
<glyph unicode="&#xc7;" horiz-adv-x="849" d="M61 334v758q0 162 109 262t264 100q152 0 253 -93t101 -251v-219h-296v205q0 72 -61.5 71.5t-61.5 -71.5v-758q0 -72 61.5 -72t61.5 72v225h296v-231q0 -129 -71.5 -218t-186.5 -120q33 -53 33 -127q0 -119 -83 -192.5t-214 -73.5q-27 0 -52.5 3t-37.5 7l-12 2v182 q16 -6 59 -6q55 0 89 32t34 83q0 47 -37 92q-113 31 -180.5 120t-67.5 218z" />
<glyph unicode="&#xc8;" horiz-adv-x="727" d="M82 0v1434h594v-308h-287v-252h225v-286h-225v-281h297v-307h-604zM123 1884h297l82 -348h-215z" />
<glyph unicode="&#xc9;" horiz-adv-x="727" d="M82 0v1434h594v-308h-287v-252h225v-286h-225v-281h297v-307h-604zM287 1536l82 348h297l-164 -348h-215z" />
<glyph unicode="&#xca;" horiz-adv-x="727" d="M72 1536l204 348h205l205 -348h-217l-96 147l-97 -147h-204zM82 0v1434h594v-308h-287v-252h225v-286h-225v-281h297v-307h-604z" />
<glyph unicode="&#xcb;" horiz-adv-x="727" d="M47 1673.5q0 65.5 42 107.5t107.5 42t107.5 -42t42 -107.5t-42 -107.5t-107.5 -42t-107.5 42t-42 107.5zM82 0v1434h594v-308h-287v-252h225v-286h-225v-281h297v-307h-604zM408 1673.5q0 65.5 42 107.5t107.5 42t107.5 -42t42 -107.5t-42 -107.5t-107.5 -42t-107.5 42 t-42 107.5z" />
<glyph unicode="&#xcc;" horiz-adv-x="497" d="M-10 1884h297l82 -348h-215zM92 0v1434h314v-1434h-314z" />
<glyph unicode="&#xcd;" horiz-adv-x="497" d="M92 0v1434h314v-1434h-314zM129 1536l82 348h297l-164 -348h-215z" />
<glyph unicode="&#xce;" horiz-adv-x="497" d="M-59 1536l204 348h205l205 -348h-217l-96 147l-97 -147h-204zM92 0v1434h314v-1434h-314z" />
<glyph unicode="&#xcf;" horiz-adv-x="497" d="M-80 1673.5q0 65.5 42 107.5t107.5 42t107.5 -42t42 -107.5t-42 -107.5t-107.5 -42t-107.5 42t-42 107.5zM92 0v1434h314v-1434h-314zM281 1673.5q0 65.5 42 107.5t107.5 42t107.5 -42t42 -107.5t-42 -107.5t-107.5 -42t-107.5 42t-42 107.5z" />
<glyph unicode="&#xd0;" horiz-adv-x="952" d="M20 625v184h123v625h373q176 0 275.5 -92.5t99.5 -272.5v-696q0 -180 -103.5 -276.5t-279.5 -96.5h-365v625h-123zM451 287h41q92 0 92 102v655q0 102 -92 103h-41v-338h92v-184h-92v-338z" />
<glyph unicode="&#xd1;" horiz-adv-x="931" d="M82 0v1434h287l215 -701v701h266v-1434h-266l-236 766v-766h-266zM172 1544q0 10 1 25.5t11.5 56.5t28.5 73t57 57.5t90 25.5q61 0 120 -42t85 -42q18 0 29.5 17.5t13.5 35.5l2 18h150q0 -10 -1 -25t-11.5 -56t-29 -73t-57 -57.5t-90.5 -25.5q-61 0 -119.5 42t-84.5 42 q-18 0 -29.5 -17.5t-13.5 -35.5l-2 -19h-150z" />
<glyph unicode="&#xd2;" horiz-adv-x="880" d="M61 344v737q0 166 111 269.5t272.5 103.5t268 -99.5t106.5 -264.5v-738q0 -166 -110.5 -269t-272.5 -103t-268.5 99t-106.5 265zM178 1884h297l82 -348h-215zM369 348q0 -82 71.5 -82t71.5 82v737q0 82 -71.5 82t-71.5 -82v-737z" />
<glyph unicode="&#xd3;" horiz-adv-x="880" d="M61 344v737q0 166 111 269.5t272.5 103.5t268 -99.5t106.5 -264.5v-738q0 -166 -110.5 -269t-272.5 -103t-268.5 99t-106.5 265zM324 1536l82 348h296l-163 -348h-215zM369 348q0 -82 71.5 -82t71.5 82v737q0 82 -71.5 82t-71.5 -82v-737z" />
<glyph unicode="&#xd4;" horiz-adv-x="880" d="M61 344v737q0 166 111 269.5t272.5 103.5t268 -99.5t106.5 -264.5v-738q0 -166 -110.5 -269t-272.5 -103t-268.5 99t-106.5 265zM133 1536l205 348h205l205 -348h-218l-96 147l-96 -147h-205zM369 348q0 -82 71.5 -82t71.5 82v737q0 82 -71.5 82t-71.5 -82v-737z" />
<glyph unicode="&#xd5;" horiz-adv-x="880" d="M61 344v737q0 166 111 269.5t272.5 103.5t268 -99.5t106.5 -264.5v-738q0 -166 -110.5 -269t-272.5 -103t-268.5 99t-106.5 265zM147 1544q0 10 1.5 25.5t11.5 56.5t28.5 73t57.5 57.5t90 25.5q61 0 119.5 -42t85.5 -42q18 0 29.5 17.5t13.5 35.5l2 18h149q0 -10 -1 -25 t-11 -56t-28.5 -73t-57.5 -57.5t-90 -25.5q-61 0 -119.5 42t-85.5 42q-18 0 -29.5 -17.5t-13.5 -35.5l-2 -19h-150zM369 348q0 -82 71.5 -82t71.5 82v737q0 82 -71.5 82t-71.5 -82v-737z" />
<glyph unicode="&#xd6;" horiz-adv-x="880" d="M61 344v737q0 166 111 269.5t272.5 103.5t268 -99.5t106.5 -264.5v-738q0 -166 -110.5 -269t-272.5 -103t-268.5 99t-106.5 265zM111 1673.5q0 65.5 42 107.5t107.5 42t107.5 -42t42 -107.5t-42 -107.5t-107.5 -42t-107.5 42t-42 107.5zM369 348q0 -82 71.5 -82t71.5 82 v737q0 82 -71.5 82t-71.5 -82v-737zM471 1673.5q0 65.5 42 107.5t107.5 42t107.5 -42t42 -107.5t-42 -107.5t-107.5 -42t-107.5 42t-42 107.5z" />
<glyph unicode="&#xd7;" d="M51 510l213 207l-213 207l160 159l209 -213l209 213l159 -159l-215 -207l215 -207l-159 -160l-209 213l-209 -213z" />
<glyph unicode="&#xd8;" horiz-adv-x="880" d="M41 -61l82 192q-61 90 -62 213v737q0 166 111 269.5t272 103.5q127 0 220 -61l43 102h133l-82 -192q61 -90 61 -213v-738q0 -166 -110.5 -269t-272.5 -103q-125 0 -219 59l-43 -100h-133zM369 348q0 -82 71.5 -82t71.5 82v381l-143 -336v-45zM369 705l143 335v45 q0 82 -71.5 82t-71.5 -82v-380z" />
<glyph unicode="&#xd9;" horiz-adv-x="880" d="M72 334v1100h309v-1096q0 -72 61.5 -72t61.5 72v1096h305v-1092q0 -162 -108.5 -262t-264 -100t-260 96t-104.5 258zM193 1884h296l82 -348h-215z" />
<glyph unicode="&#xda;" horiz-adv-x="880" d="M72 334v1100h309v-1096q0 -72 61.5 -72t61.5 72v1096h305v-1092q0 -162 -108.5 -262t-264 -100t-260 96t-104.5 258zM315 1536l82 348h297l-164 -348h-215z" />
<glyph unicode="&#xdb;" horiz-adv-x="880" d="M72 334v1100h309v-1096q0 -72 61.5 -72t61.5 72v1096h305v-1092q0 -162 -108.5 -262t-264 -100t-260 96t-104.5 258zM133 1536l205 348h205l205 -348h-218l-96 147l-96 -147h-205z" />
<glyph unicode="&#xdc;" horiz-adv-x="880" d="M72 334v1100h309v-1096q0 -72 61.5 -72t61.5 72v1096h305v-1092q0 -162 -108.5 -262t-264 -100t-260 96t-104.5 258zM111 1673.5q0 65.5 42 107.5t107.5 42t107.5 -42t42 -107.5t-42 -107.5t-107.5 -42t-107.5 42t-42 107.5zM471 1673.5q0 65.5 42 107.5t107.5 42 t107.5 -42t42 -107.5t-42 -107.5t-107.5 -42t-107.5 42t-42 107.5z" />
<glyph unicode="&#xdd;" horiz-adv-x="808" d="M0 1434h328l86 -512l88 512h307l-252 -922v-512h-307v512zM313 1536l82 348h297l-164 -348h-215z" />
<glyph unicode="&#xde;" horiz-adv-x="870" d="M82 0v1434h307v-226h45q188 0 291.5 -95t103.5 -290v-143q0 -195 -107.5 -294t-295.5 -99h-37v-287h-307zM389 563h41q92 0 92 103v163q0 102 -92 103h-41v-369z" />
<glyph unicode="&#xdf;" horiz-adv-x="845" d="M72 0v1118q0 147 102 241.5t247.5 94.5t244 -90t98.5 -238v-135q0 -129 -84 -223q125 -98 125 -262v-215q0 -135 -94.5 -223t-231.5 -88l-69 6v264q14 -4 42.5 -4t47 19.5t18.5 51.5v215q0 33 -18 52.5t-47 19.5h-43v266h8q59 0 59 66v186q0 66 -59.5 66t-59.5 -66v-1122 h-286z" />
<glyph unicode="&#xe0;" horiz-adv-x="819" d="M41 283v41q0 143 76 227t194 84q100 0 160 -64v207q0 61 -55.5 61.5t-55.5 -61.5v-71h-276v47q0 143 99.5 237t236.5 94q141 0 239.5 -90t98.5 -233v-762h-246l-10 94q-63 -115 -199 -114q-119 0 -190.5 79.5t-71.5 223.5zM172 1516h297l82 -349h-215zM328 287 q0 -82 71.5 -82t71.5 82v61q0 82 -71.5 82t-71.5 -82v-61z" />
<glyph unicode="&#xe1;" horiz-adv-x="819" d="M41 283v41q0 143 76 227t194 84q100 0 160 -64v207q0 61 -55.5 61.5t-55.5 -61.5v-71h-276v47q0 143 99.5 237t236.5 94q141 0 239.5 -90t98.5 -233v-762h-246l-10 94q-63 -115 -199 -114q-119 0 -190.5 79.5t-71.5 223.5zM303 1167l82 349h297l-164 -349h-215zM328 287 q0 -82 71.5 -82t71.5 82v61q0 82 -71.5 82t-71.5 -82v-61z" />
<glyph unicode="&#xe2;" horiz-adv-x="819" d="M41 283v41q0 143 76 227t194 84q100 0 160 -64v207q0 61 -55.5 61.5t-55.5 -61.5v-71h-276v47q0 143 99.5 237t236.5 94q141 0 239.5 -90t98.5 -233v-762h-246l-10 94q-63 -115 -199 -114q-119 0 -190.5 79.5t-71.5 223.5zM127 1167l205 349h205l204 -349h-217l-96 148 l-96 -148h-205zM328 287q0 -82 71.5 -82t71.5 82v61q0 82 -71.5 82t-71.5 -82v-61z" />
<glyph unicode="&#xe3;" horiz-adv-x="819" d="M41 283v41q0 143 76 227t194 84q100 0 160 -64v207q0 61 -55.5 61.5t-55.5 -61.5v-71h-276v47q0 143 99.5 237t236.5 94q141 0 239.5 -90t98.5 -233v-762h-246l-10 94q-63 -115 -199 -114q-119 0 -190.5 79.5t-71.5 223.5zM141 1176q0 10 1 25.5t11.5 56t29 72.5 t57.5 57.5t90 25.5q61 0 119.5 -42t85.5 -42q18 0 29 17.5t14 35.5l2 19h149q0 -10 -1 -25.5t-11 -56.5t-28.5 -73t-57.5 -57.5t-90 -25.5q-61 0 -120 42t-85 42q-18 0 -29.5 -17.5t-13.5 -35.5l-2 -18h-150zM328 287q0 -82 71.5 -82t71.5 82v61q0 82 -71.5 82t-71.5 -82 v-61z" />
<glyph unicode="&#xe4;" horiz-adv-x="819" d="M41 283v41q0 143 76 227t194 84q100 0 160 -64v207q0 61 -55.5 61.5t-55.5 -61.5v-71h-276v47q0 143 99.5 237t236.5 94q141 0 239.5 -90t98.5 -233v-762h-246l-10 94q-63 -115 -199 -114q-119 0 -190.5 79.5t-71.5 223.5zM100 1304.5q0 65.5 42 107.5t107.5 42 t107.5 -42t42 -107.5t-42 -107.5t-107.5 -42t-107.5 42t-42 107.5zM328 287q0 -82 71.5 -82t71.5 82v61q0 82 -71.5 82t-71.5 -82v-61zM461 1304.5q0 65.5 42 107.5t107.5 42t107.5 -42t42 -107.5t-42 -107.5t-107.5 -42t-107.5 42t-42 107.5z" />
<glyph unicode="&#xe5;" horiz-adv-x="819" d="M41 283v41q0 143 76 227t194 84q100 0 160 -64v207q0 61 -55.5 61.5t-55.5 -61.5v-71h-276v47q0 143 99.5 237t236.5 94q141 0 239.5 -90t98.5 -233v-762h-246l-10 94q-63 -115 -199 -114q-119 0 -190.5 79.5t-71.5 223.5zM240 1331q0 80 55 132.5t139 52.5t139.5 -52.5 t55.5 -132.5t-55.5 -132t-139.5 -52t-139 52t-55 132zM328 287q0 -82 71.5 -82t71.5 82v61q0 82 -71.5 82t-71.5 -82v-61zM365 1331.5q0 -28.5 19 -48t50 -19.5t50.5 19.5t19.5 48t-19.5 48t-50.5 19.5t-50 -19.5t-19 -48z" />
<glyph unicode="&#xe6;" horiz-adv-x="1206" d="M41 283v41q0 143 76 227t194 84q100 0 160 -64v207q0 61 -55.5 61.5t-55.5 -61.5v-71h-276v47q0 143 99.5 237t236.5 94q119 0 198 -69q82 70 199 69q141 0 239.5 -90t98.5 -233v-281h-397v-164q0 -33 18.5 -52t47 -19t47 19.5t18.5 51.5v82h266v-88q0 -143 -102.5 -237 t-243.5 -94q-145 0 -225 96q-78 -96 -260 -96q-131 0 -207 78.5t-76 224.5zM328 287q0 -82 71.5 -82t71.5 82v61q0 82 -71.5 82t-71.5 -82v-61zM758 666h131v122q0 33 -18.5 52.5t-47 19.5t-47 -19.5t-18.5 -52.5v-122z" />
<glyph unicode="&#xe7;" horiz-adv-x="780" d="M51 305v447q0 145 102.5 239t245.5 94q139 0 234.5 -90t95.5 -235v-146h-276v142q0 63 -57.5 63t-57.5 -63v-447q0 -63 57.5 -63t57.5 63v152h276v-148q0 -115 -64.5 -200.5t-164.5 -116.5q33 -57 32 -129q0 -119 -82.5 -192.5t-213.5 -73.5q-27 0 -52.5 3t-38.5 7l-12 2 v182q16 -6 60 -6q55 0 88.5 32t33.5 83q0 59 -39 92q-100 31 -162.5 112.5t-62.5 196.5z" />
<glyph unicode="&#xe8;" horiz-adv-x="786" d="M51 303v451q0 143 102.5 237t244 94t239.5 -90t98 -233v-281h-397v-164q0 -33 18.5 -52t47 -19t47 19.5t18.5 51.5v82h266v-88q0 -143 -102.5 -237t-243.5 -94t-239.5 90t-98.5 233zM150 1516h296l82 -349h-215zM338 666h131v112q0 33 -18.5 52.5t-47 19.5t-47 -19.5 t-18.5 -52.5v-112z" />
<glyph unicode="&#xe9;" horiz-adv-x="786" d="M51 303v451q0 143 102.5 237t244 94t239.5 -90t98 -233v-281h-397v-164q0 -33 18.5 -52t47 -19t47 19.5t18.5 51.5v82h266v-88q0 -143 -102.5 -237t-243.5 -94t-239.5 90t-98.5 233zM281 1167l81 349h297l-163 -349h-215zM338 666h131v112q0 33 -18.5 52.5t-47 19.5 t-47 -19.5t-18.5 -52.5v-112z" />
<glyph unicode="&#xea;" horiz-adv-x="786" d="M51 303v451q0 143 102.5 237t244 94t239.5 -90t98 -233v-281h-397v-164q0 -33 18.5 -52t47 -19t47 19.5t18.5 51.5v82h266v-88q0 -143 -102.5 -237t-243.5 -94t-239.5 90t-98.5 233zM86 1167l205 349h205l204 -349h-217l-96 148l-96 -148h-205zM338 666h131v112 q0 33 -18.5 52.5t-47 19.5t-47 -19.5t-18.5 -52.5v-112z" />
<glyph unicode="&#xeb;" horiz-adv-x="786" d="M51 303v451q0 143 102.5 237t244 94t239.5 -90t98 -233v-281h-397v-164q0 -33 18.5 -52t47 -19t47 19.5t18.5 51.5v82h266v-88q0 -143 -102.5 -237t-243.5 -94t-239.5 90t-98.5 233zM63 1304.5q0 65.5 42 107.5t108 42t107.5 -42t41.5 -107.5t-41.5 -107.5t-107.5 -42 t-108 42t-42 107.5zM338 666h131v112q0 33 -18.5 52.5t-47 19.5t-47 -19.5t-18.5 -52.5v-112zM424 1304.5q0 65.5 42 107.5t107.5 42t107.5 -42t42 -107.5t-42 -107.5t-107.5 -42t-107.5 42t-42 107.5z" />
<glyph unicode="&#xec;" horiz-adv-x="454" d="M-31 1516h297l82 -349h-215zM82 0v1065h291v-1065h-291z" />
<glyph unicode="&#xed;" horiz-adv-x="454" d="M82 0v1065h291v-1065h-291zM106 1167l82 349h297l-163 -349h-216z" />
<glyph unicode="&#xee;" horiz-adv-x="454" d="M-80 1167l205 349h205l205 -349h-218l-96 148l-96 -148h-205zM82 0v1065h291v-1065h-291z" />
<glyph unicode="&#xef;" horiz-adv-x="454" d="M-102 1304.5q0 65.5 42 107.5t107.5 42t107.5 -42t42 -107.5t-42 -107.5t-107.5 -42t-107.5 42t-42 107.5zM82 0v1065h291v-1065h-291zM258 1304.5q0 65.5 42 107.5t107.5 42t107.5 -42t42 -107.5t-42 -107.5t-107.5 -42t-107.5 42t-42 107.5z" />
<glyph unicode="&#xf0;" horiz-adv-x="806" d="M51 313v430q0 135 91 218t225 83q14 0 39 -4l-62 136l-201 -50v144l142 35l-60 129h287l27 -66l217 55v-143l-164 -41l108 -270l9 -17q47 -113 47 -293v-337q0 -150 -104.5 -246t-252 -96t-248 91.5t-100.5 241.5zM338 317q0 -33 18.5 -52t47 -19t47 19.5t18.5 51.5v431 q0 33 -18.5 52t-47 19t-47 -19t-18.5 -52v-431z" />
<glyph unicode="&#xf1;" horiz-adv-x="829" d="M72 0v1065h245l13 -111q61 131 207 131q106 0 168.5 -72.5t62.5 -219.5v-793h-287v752q0 68 -59 67q-64 1 -64 -67v-752h-286zM131 1176q0 10 1 25.5t11.5 56t28.5 72.5t57 57.5t90 25.5q61 0 120 -42t85 -42q18 0 29.5 17.5t13.5 35.5l2 19h150q0 -10 -1 -25.5 t-11.5 -56.5t-29 -73t-57 -57.5t-90.5 -25.5q-61 0 -119.5 42t-84.5 42q-18 0 -29.5 -17.5t-13.5 -35.5l-2 -18h-150z" />
<glyph unicode="&#xf2;" horiz-adv-x="806" d="M51 313v430q0 150 104.5 246t252 96t248 -92t100.5 -241v-430q0 -150 -104.5 -246t-252 -96t-248 91.5t-100.5 241.5zM150 1516h296l82 -349h-215zM338 317q0 -33 18.5 -52t47 -19t47 19.5t18.5 51.5v431q0 33 -18.5 52t-47 19t-47 -19t-18.5 -52v-431z" />
<glyph unicode="&#xf3;" horiz-adv-x="806" d="M51 313v430q0 150 104.5 246t252 96t248 -92t100.5 -241v-430q0 -150 -104.5 -246t-252 -96t-248 91.5t-100.5 241.5zM281 1167l81 349h297l-163 -349h-215zM338 317q0 -33 18.5 -52t47 -19t47 19.5t18.5 51.5v431q0 33 -18.5 52t-47 19t-47 -19t-18.5 -52v-431z" />
<glyph unicode="&#xf4;" horiz-adv-x="806" d="M51 313v430q0 150 104.5 246t252 96t248 -92t100.5 -241v-430q0 -150 -104.5 -246t-252 -96t-248 91.5t-100.5 241.5zM96 1167l205 349h205l205 -349h-217l-97 148l-96 -148h-205zM338 317q0 -33 18.5 -52t47 -19t47 19.5t18.5 51.5v431q0 33 -18.5 52t-47 19t-47 -19 t-18.5 -52v-431z" />
<glyph unicode="&#xf5;" horiz-adv-x="806" d="M51 313v430q0 150 104.5 246t252 96t248 -92t100.5 -241v-430q0 -150 -104.5 -246t-252 -96t-248 91.5t-100.5 241.5zM111 1176q0 10 1 25.5t11 56t28.5 72.5t57.5 57.5t90 25.5q61 0 119.5 -42t85.5 -42q18 0 29.5 17.5t13.5 35.5l2 19h149q0 -10 -1 -25.5t-11 -56.5 t-28.5 -73t-57.5 -57.5t-90 -25.5q-61 0 -119.5 42t-85.5 42q-18 0 -29.5 -17.5t-13.5 -35.5l-2 -18h-149zM338 317q0 -33 18.5 -52t47 -19t47 19.5t18.5 51.5v431q0 33 -18.5 52t-47 19t-47 -19t-18.5 -52v-431z" />
<glyph unicode="&#xf6;" horiz-adv-x="806" d="M51 313v430q0 150 104.5 246t252 96t248 -92t100.5 -241v-430q0 -150 -104.5 -246t-252 -96t-248 91.5t-100.5 241.5zM74 1304.5q0 65.5 42 107.5t107.5 42t107.5 -42t42 -107.5t-42 -107.5t-107.5 -42t-107.5 42t-42 107.5zM338 317q0 -33 18.5 -52t47 -19t47 19.5 t18.5 51.5v431q0 33 -18.5 52t-47 19t-47 -19t-18.5 -52v-431zM434 1304.5q0 65.5 42 107.5t107.5 42t107.5 -42t42 -107.5t-42 -107.5t-107.5 -42t-107.5 42t-42 107.5z" />
<glyph unicode="&#xf7;" d="M61 604v246h717v-246h-717zM266 366.5q0 63.5 45 108.5t108.5 45t108.5 -45t45 -108.5t-45 -108.5t-108.5 -45t-108.5 45t-45 108.5zM266 1087.5q0 63.5 45 108.5t108.5 45t108.5 -45t45 -108.5t-45 -108.5t-108.5 -45t-108.5 45t-45 108.5z" />
<glyph unicode="&#xf8;" horiz-adv-x="806" d="M41 -61l80 165q-70 90 -70 209v430q0 150 104.5 246t252.5 96q92 0 174 -43l41 84h143l-82 -165q72 -88 72 -209v-430q0 -150 -104.5 -246t-252.5 -96q-88 0 -174 40l-41 -81h-143zM328 524l135 277q-18 29 -60 28q-35 0 -55 -21t-20 -60v-224zM344 262q20 -26 59 -26 q35 0 55.5 21.5t20.5 59.5v222z" />
<glyph unicode="&#xf9;" horiz-adv-x="829" d="M61 272v793h287v-752q0 -68 60 -67q63 -1 63 67v752h287v-1065h-246l-12 111q-61 -131 -207 -131q-106 0 -169 72.5t-63 219.5zM139 1516h297l82 -349h-215z" />
<glyph unicode="&#xfa;" horiz-adv-x="829" d="M61 272v793h287v-752q0 -68 60 -67q63 -1 63 67v752h287v-1065h-246l-12 111q-61 -131 -207 -131q-106 0 -169 72.5t-63 219.5zM303 1167l82 349h297l-164 -349h-215z" />
<glyph unicode="&#xfb;" horiz-adv-x="829" d="M61 272v793h287v-752q0 -68 60 -67q63 -1 63 67v752h287v-1065h-246l-12 111q-61 -131 -207 -131q-106 0 -169 72.5t-63 219.5zM102 1167l205 349h205l205 -349h-217l-97 148l-96 -148h-205z" />
<glyph unicode="&#xfc;" horiz-adv-x="829" d="M61 272v793h287v-752q0 -68 60 -67q63 -1 63 67v752h287v-1065h-246l-12 111q-61 -131 -207 -131q-106 0 -169 72.5t-63 219.5zM80 1304.5q0 65.5 42 107.5t107.5 42t107.5 -42t42 -107.5t-42 -107.5t-107.5 -42t-107.5 42t-42 107.5zM440 1304.5q0 65.5 42 107.5 t107.5 42t107.5 -42t42 -107.5t-42 -107.5t-107.5 -42t-107.5 42t-42 107.5z" />
<glyph unicode="&#xfd;" horiz-adv-x="737" d="M0 1065h297l82 -655l82 655h276l-241 -1090q-72 -324 -322 -323q-43 0 -75.5 4t-45.5 8l-12 6v226q29 -8 72 -9q105 0 123 113zM272 1167l82 349h297l-164 -349h-215z" />
<glyph unicode="&#xfe;" horiz-adv-x="827" d="M72 -328v1762h286v-416q61 68 162 67q115 0 185.5 -76.5t70.5 -215.5v-512q0 -139 -74.5 -220t-189.5 -81q-96 0 -154 57v-365h-286zM358 317q0 -33 18.5 -52t47.5 -19t47 19.5t18 51.5v431q0 33 -18 52t-47 19t-47.5 -19t-18.5 -52v-431z" />
<glyph unicode="&#xff;" horiz-adv-x="737" d="M0 1065h297l82 -655l82 655h276l-241 -1090q-72 -324 -322 -323q-43 0 -75.5 4t-45.5 8l-12 6v226q29 -8 72 -9q105 0 123 113zM49 1304.5q0 65.5 42 107.5t107.5 42t107.5 -42t42 -107.5t-42 -107.5t-107.5 -42t-107.5 42t-42 107.5zM410 1304.5q0 65.5 42 107.5 t107.5 42t107.5 -42t42 -107.5t-42 -107.5t-107.5 -42t-107.5 42t-42 107.5z" />
<glyph unicode="&#x152;" horiz-adv-x="1146" d="M61 365v696q0 180 103.5 276.5t279.5 96.5h652v-308h-287v-252h225v-286h-225v-281h297v-307h-670q-176 0 -275.5 92t-99.5 273zM369 389q0 -102 92 -102h41v860h-41q-92 0 -92 -103v-655z" />
<glyph unicode="&#x153;" horiz-adv-x="1204" d="M51 313v430q0 150 104.5 246t252.5 96q123 0 206 -71q82 72 201 71q141 0 239.5 -90t98.5 -233v-281h-397v-164q0 -33 18.5 -52t47 -19t47 19.5t18.5 51.5v82h266v-88q0 -143 -102.5 -237t-243.5 -94q-125 0 -203 71q-82 -72 -205 -71q-147 0 -247.5 91.5t-100.5 241.5z M338 317q0 -33 18.5 -52t47 -19t47 19.5t18.5 51.5v431q0 33 -18.5 52t-47 19t-47 -19t-18.5 -52v-431zM756 666h131v122q0 33 -18.5 52.5t-47 19.5t-47 -19.5t-18.5 -52.5v-122z" />
<glyph unicode="&#x178;" horiz-adv-x="808" d="M0 1434h328l86 -512l88 512h307l-252 -922v-512h-307v512zM84 1673.5q0 65.5 42 107.5t107.5 42t107.5 -42t42 -107.5t-42 -107.5t-107.5 -42t-107.5 42t-42 107.5zM444 1673.5q0 65.5 42 107.5t107.5 42t107.5 -42t42 -107.5t-42 -107.5t-107.5 -42t-107.5 42t-42 107.5 z" />
<glyph unicode="&#x2c6;" horiz-adv-x="1085" d="M236 1167l204 349h205l205 -349h-217l-96 148l-97 -148h-204z" />
<glyph unicode="&#x2dc;" horiz-adv-x="956" d="M195 1219q0 10 1 25.5t11 56t28.5 72.5t57.5 57.5t90 25.5q61 0 119.5 -42t85.5 -42q18 0 29.5 17.5t13.5 35.5l2 19h149q0 -10 -1 -25.5t-11 -56.5t-28.5 -73t-57.5 -57.5t-90 -25.5q-61 0 -119.5 42t-85.5 42q-18 0 -29.5 -17.5t-13.5 -35.5l-2 -18h-149z" />
<glyph unicode="&#x2000;" horiz-adv-x="942" />
<glyph unicode="&#x2001;" horiz-adv-x="1884" />
<glyph unicode="&#x2002;" horiz-adv-x="942" />
<glyph unicode="&#x2003;" horiz-adv-x="1884" />
<glyph unicode="&#x2004;" horiz-adv-x="628" />
<glyph unicode="&#x2005;" horiz-adv-x="471" />
<glyph unicode="&#x2006;" horiz-adv-x="314" />
<glyph unicode="&#x2007;" horiz-adv-x="314" />
<glyph unicode="&#x2008;" horiz-adv-x="235" />
<glyph unicode="&#x2009;" horiz-adv-x="376" />
<glyph unicode="&#x200a;" horiz-adv-x="104" />
<glyph unicode="&#x2010;" horiz-adv-x="614" d="M61 594v266h492v-266h-492z" />
<glyph unicode="&#x2011;" horiz-adv-x="614" d="M61 594v266h492v-266h-492z" />
<glyph unicode="&#x2012;" horiz-adv-x="614" d="M61 594v266h492v-266h-492z" />
<glyph unicode="&#x2013;" horiz-adv-x="921" d="M61 594v266h799v-266h-799z" />
<glyph unicode="&#x2014;" horiz-adv-x="1064" d="M61 594v266h943v-266h-943z" />
<glyph unicode="&#x2018;" horiz-adv-x="481" d="M72 840l112 594h226l-21 -594h-317z" />
<glyph unicode="&#x2019;" horiz-adv-x="481" d="M72 840l20 594h318l-113 -594h-225z" />
<glyph unicode="&#x201a;" horiz-adv-x="481" d="M72 -266l20 594h318l-113 -594h-225z" />
<glyph unicode="&#x201c;" horiz-adv-x="890" d="M72 840l112 594h226l-21 -594h-317zM481 840l113 594h225l-20 -594h-318z" />
<glyph unicode="&#x201d;" horiz-adv-x="890" d="M72 840l20 594h318l-113 -594h-225zM481 840l21 594h317l-112 -594h-226z" />
<glyph unicode="&#x201e;" horiz-adv-x="890" d="M72 -266l20 594h318l-113 -594h-225zM481 -266l21 594h317l-112 -594h-226z" />
<glyph unicode="&#x2022;" horiz-adv-x="696" d="M61 715q0 119 85 204t204 85t202 -83t83 -202t-85 -204t-204 -85t-202 83t-83 202z" />
<glyph unicode="&#x202f;" horiz-adv-x="376" />
<glyph unicode="&#x2039;" horiz-adv-x="706" d="M61 676v82l390 368l153 -153l-225 -252l225 -250l-153 -164z" />
<glyph unicode="&#x203a;" horiz-adv-x="706" d="M102 461l224 250l-224 252l154 163l389 -368v-82l-389 -369z" />
<glyph unicode="&#x205f;" horiz-adv-x="471" />
<glyph unicode="&#x20ac;" horiz-adv-x="878" d="M20 530v148h123v78h-123v147h123v205q0 152 105.5 249t251.5 97q141 0 239.5 -91t98.5 -237v-143h-281v123q0 76 -61.5 76t-61.5 -76v-203h311v-147h-311v-78h271v-148h-271v-202q0 -76 61.5 -76t61.5 76v123h281v-136q0 -147 -102.5 -241t-243.5 -94q-145 0 -247 93 t-102 244v213h-123z" />
<glyph unicode="&#x2122;" horiz-adv-x="1118" d="M61 1274v160h388v-160h-105v-486h-178v486h-105zM524 788v646h170l99 -291l100 291h164v-646h-164v316l-74 -211h-59l-76 217v-322h-160z" />
<glyph unicode="&#x25fc;" horiz-adv-x="1064" d="M0 0v1065h1065v-1065h-1065z" />
<glyph unicode="&#xfb01;" horiz-adv-x="1038" d="M20 829v236h103v117q0 135 76.5 203.5t210.5 68.5q35 0 70.5 -4t54.5 -8l18 -2v-246q-39 4 -68 4q-41 0 -58 -18.5t-17 -63.5v-51h143v-236h-143v-829h-287v829h-103zM637 1321q0 72 51 123t123 51t123 -51t51 -123t-51 -123t-123 -51t-123 51t-51 123zM666 0v1065h290 v-1065h-290z" />
<glyph unicode="&#xfb02;" horiz-adv-x="1038" d="M20 829v236h103v117q0 135 76.5 203.5t210.5 68.5q35 0 70.5 -4t54.5 -8l18 -2v-246q-39 4 -68 4q-41 0 -58 -18.5t-17 -63.5v-51h143v-236h-143v-829h-287v829h-103zM666 0v1434h290v-1434h-290z" />
</font>
</defs>
</svg>
